<?xml version="1.0" encoding="UTF-8" standalone="no"?>
<svg
   xmlns:dc="http://purl.org/dc/elements/1.1/"
   xmlns:cc="http://creativecommons.org/ns#"
   xmlns:rdf="http://www.w3.org/1999/02/22-rdf-syntax-ns#"
   xmlns:svg="http://www.w3.org/2000/svg"
   xmlns="http://www.w3.org/2000/svg"
   id="svg4826"
   version="1.1"
   viewBox="0 0 179.86802 60.85326"
   height="176.92044"
   width="522.93549">
  <defs
     id="defs4820" />
  <metadata
     id="metadata4823">
    <rdf:RDF>
      <cc:Work
         rdf:about="">
        <dc:format>image/svg+xml</dc:format>
        <dc:type
           rdf:resource="http://purl.org/dc/dcmitype/StillImage" />
        <dc:title></dc:title>
      </cc:Work>
    </rdf:RDF>
  </metadata>
  <g
     transform="translate(-12.03151,-74.049411)"
     id="layer1">
    <g
       transform="translate(-217.15649,-2.80633)"
       id="g4896">
      <g
         style="font-style:normal;font-variant:normal;font-weight:normal;font-stretch:normal;letter-spacing:normal;word-spacing:normal;text-anchor:start;fill:none;fill-opacity:1;fill-rule:evenodd;stroke:#000000;stroke-linecap:butt;stroke-linejoin:miter;stroke-miterlimit:10.43299961;stroke-dasharray:none;stroke-dashoffset:0;stroke-opacity:1"
         id="content"
         transform="matrix(0.3,0,0,-0.3,-52.5,222.75)"
         xml:space="preserve"
         stroke-miterlimit="10.433"
         font-style="normal"
         font-variant="normal"
         font-weight="normal"
         font-stretch="normal"
         font-size-adjust="none"
         letter-spacing="normal"
         word-spacing="normal"><path
           style="fill:#000000;stroke-width:0"
           d="m 952.05,345.87 0.21,1.28 3.39,13.56 c 0.44,1.74 0.55,1.9 2.69,1.9 h 4.78 c 4.14,0 6.78,-1.35 6.78,-4.79 0,-1.95 -1,-6.23 -2.94,-8.03 -2.5,-2.23 -5.48,-2.64 -7.69,-2.64 h -7.01 l -0.21,-1.28 h 8.47 c 7.08,0 14,5.17 14,10.75 0,3.84 -3.28,7.53 -9.81,7.53 h -16.14 c -0.95,0 -1.5,0 -1.5,-0.95 0,-0.59 0.45,-0.59 1.45,-0.59 0.64,0 1.55,-0.05 2.14,-0.1 0.8,-0.11 1.1,-0.25 1.1,-0.8 0,-0.2 -0.05,-0.35 -0.21,-0.95 l -6.67,-26.75 c -0.5,-1.95 -0.59,-2.34 -4.53,-2.34 -0.84,0 -1.39,0 -1.39,-0.96 0,-0.59 0.59,-0.59 0.74,-0.59 1.4,0 4.93,0.16 6.32,0.16 1.05,0 2.14,-0.07 3.19,-0.07 1.11,0 2.2,-0.09 3.25,-0.09 0.34,0 0.99,0 0.99,1 0,0.55 -0.44,0.55 -1.4,0.55 -1.84,0 -3.23,0 -3.23,0.89 0,0.3 0.09,0.55 0.14,0.84 z"
           id="path4831" /><path
           style="fill:#000000;stroke-width:0"
           d="m 992.45,318.17 -0.01,0.02 v 0.03 0.01 0.02 0.01 l -0.01,0.02 v 0.02 l -0.01,0.01 -0.01,0.02 -0.01,0.02 -0.01,0.03 -0.02,0.02 -0.01,0.02 -0.02,0.03 -0.02,0.03 -0.03,0.03 -0.02,0.04 -0.03,0.03 -0.02,0.02 -0.01,0.02 -0.02,0.02 -0.02,0.02 -0.02,0.02 -0.02,0.03 -0.02,0.02 -0.02,0.02 -0.02,0.03 -0.03,0.03 -0.02,0.02 -0.03,0.03 -0.02,0.03 -0.03,0.03 -0.03,0.03 -0.03,0.03 -0.03,0.03 -0.03,0.03 -0.04,0.04 -0.03,0.03 -0.03,0.04 -0.04,0.03 -0.04,0.04 -0.04,0.04 c -6.22,6.28 -7.81,15.69 -7.81,23.31 0,8.68 1.89,17.35 8.01,23.57 0.65,0.61 0.65,0.7 0.65,0.86 0,0.34 -0.19,0.48 -0.49,0.48 -0.5,0 -4.98,-3.37 -7.92,-9.7 -2.55,-5.49 -3.14,-11.02 -3.14,-15.21 0,-3.89 0.55,-9.9 3.28,-15.54 2.98,-6.13 7.28,-9.36 7.78,-9.36 0.3,0 0.49,0.14 0.49,0.5 z"
           id="path4833" /><path
           style="fill:#000000;stroke-width:0"
           d="m 1018,355.03 -0.1,0.32 v 0.34 0.35 0.37 0.39 l -0.1,0.39 v 0.41 l -0.1,0.41 v 0.42 l -0.1,0.43 -0.1,0.42 -0.1,0.43 -0.1,0.42 -0.1,0.42 -0.2,0.42 -0.1,0.4 -0.2,0.4 -0.2,0.38 -0.2,0.38 -0.2,0.35 -0.2,0.34 -0.3,0.32 -0.3,0.3 -0.3,0.27 -0.3,0.25 -0.1,0.12 -0.2,0.11 -0.2,0.1 -0.2,0.09 -0.1,0.08 -0.2,0.08 -0.2,0.07 -0.2,0.06 -0.2,0.05 -0.2,0.05 -0.3,0.03 -0.2,0.03 -0.2,0.01 -0.2,0.01 -0.1,-1.1 c 2.5,0 2.8,-3.19 2.8,-6.03 0,-2.44 -0.4,-4.98 -1.6,-9.92 h -10.4 c 0.8,3.2 1.8,7.19 3.8,10.72 1.3,2.44 3.2,5.23 5.4,5.23 l 0.1,1.1 c -7,0 -14.63,-14.05 -14.63,-25.46 0,-4.68 1.44,-10.22 6.03,-10.22 v 1.1 c -1.7,0 -2.7,1.45 -2.7,6.08 0,2.09 0.3,4.98 1.5,9.86 h 10.4 c -0.5,-2.29 -1.6,-6.52 -3.5,-10.11 -1.7,-3.39 -3.6,-5.83 -5.7,-5.83 v -1.1 c 7,0 14.6,14.3 14.6,25.46 z"
           id="path4835" /><path
           style="fill:#000000;stroke-width:0"
           d="m 1028,365.7 v 0.17 0.16 0.16 0.08 0.08 0.08 0.08 0.07 0.07 0.07 0.07 l -0.1,0.07 v 0.06 0.06 0.06 l -0.1,0.06 v 0.05 0.05 l -0.1,0.05 v 0.04 l -0.1,0.04 v 0.01 0.02 l -0.1,0.02 v 0.01 0.02 l -0.1,0.01 v 0.01 0.01 l -0.1,0.01 v 0.01 0 l -0.1,0.01 v 0 l -0.1,0.01 v 0 h -0.1 c -1,0 -1,-0.89 -1,-1.78 v -46.24 c 0,-0.9 0,-1.79 1,-1.79 1,0 1,0.89 1,1.79 z"
           id="path4837" /><path
           style="fill:#000000;stroke-width:0"
           d="m 1059.6,364.15 v 0 0.01 0.01 0.01 0.01 0.01 0.02 0.02 0.02 0.02 0.02 0.02 0.03 0.02 0.02 l -0.1,0.03 v 0.02 0.03 0.02 0.03 0.02 l -0.1,0.01 v 0.01 0.01 0.01 0.01 0.01 0.01 l -0.1,0.01 v 0.01 0.01 0.01 0 l -0.1,0.01 v 0.01 0 0.01 0 l -0.1,0.01 v 0 0 0.01 h -0.1 v 0 0 c -0.8,0 -5.5,-0.45 -6.4,-0.55 -0.4,-0.04 -0.7,-0.29 -0.7,-0.95 0,-0.59 0.5,-0.59 1.2,-0.59 2.4,0 2.5,-0.35 2.5,-0.85 l -0.1,-1 -3,-11.81 c -0.9,1.84 -2.4,3.19 -4.6,3.19 l 0.1,-1.1 c 3.2,0 3.9,-4.08 3.9,-4.37 0,-0.31 -0.1,-0.61 -0.1,-0.86 l -2.6,-9.77 c -0.2,-0.89 -0.2,-0.98 -1,-1.84 -2.1,-2.74 -4.2,-3.53 -5.6,-3.53 -2.5,0 -3.2,2.73 -3.2,4.69 0,2.48 1.6,8.6 2.8,10.9 1.5,2.94 3.8,4.78 5.8,4.78 l -0.1,1.1 c -5.8,0 -12,-7.32 -12,-14.6 0,-4.68 2.7,-7.97 6.6,-7.97 1,0 3.5,0.21 6.5,3.74 0.4,-2.1 2.1,-3.74 4.5,-3.74 1.8,0 2.9,1.14 3.7,2.74 0.9,1.8 1.5,4.84 1.5,4.94 0,0.5 -0.4,0.5 -0.6,0.5 -0.5,0 -0.5,-0.21 -0.7,-0.91 -0.8,-3.23 -1.7,-6.17 -3.8,-6.17 -1.3,0 -1.5,1.29 -1.5,2.29 0,1.19 0.1,1.55 0.3,2.4 z"
           id="path4839" /><path
           style="fill:#000000;stroke-width:0"
           d="m 1078.4,348.95 -0.1,0.17 -0.1,0.17 -0.1,0.16 -0.1,0.17 v 0.15 l -0.2,0.16 -0.1,0.15 -0.1,0.15 -0.1,0.14 -0.1,0.14 -0.1,0.13 -0.1,0.13 -0.2,0.12 -0.1,0.12 -0.1,0.12 -0.2,0.1 -0.1,0.11 -0.2,0.1 -0.1,0.09 -0.2,0.08 -0.1,0.08 -0.2,0.08 -0.2,0.07 -0.1,0.06 -0.2,0.05 -0.2,0.05 -0.2,0.04 -0.2,0.04 -0.2,0.02 -0.2,0.02 -0.2,0.01 -0.2,0.01 0.1,-1.1 c 3.2,0 3.9,-4.08 3.9,-4.37 0,-0.31 -0.1,-0.61 -0.1,-0.86 l -2.5,-9.77 c -0.3,-0.89 -0.3,-0.98 -1,-1.84 -2.2,-2.74 -4.3,-3.53 -5.6,-3.53 -2.5,0 -3.2,2.73 -3.2,4.69 0,2.48 1.5,8.6 2.7,10.9 1.5,2.94 3.8,4.78 5.8,4.78 l -0.1,1.1 c -5.8,0 -12,-7.32 -12,-14.6 0,-4.68 2.8,-7.97 6.6,-7.97 1,0 3.5,0.21 6.5,3.74 0.4,-2.1 2.2,-3.74 4.5,-3.74 1.8,0 2.9,1.14 3.7,2.74 0.9,1.8 1.5,4.84 1.5,4.94 0,0.5 -0.4,0.5 -0.5,0.5 -0.5,0 -0.6,-0.21 -0.8,-0.91 -0.8,-3.23 -1.7,-6.17 -3.7,-6.17 -1.4,0 -1.5,1.29 -1.5,2.29 0,1.1 0.1,1.49 0.6,3.69 0.6,2.1 0.7,2.6 1.1,4.49 l 1.8,6.97 c 0.3,1.39 0.3,1.5 0.3,1.68 0,0.86 -0.6,1.36 -1.4,1.36 -1.2,0 -1.9,-1.11 -2.1,-2.2 z"
           id="path4841" /><path
           style="fill:#000000;stroke-width:0"
           d="m 1096.4,350.04 h 4.7 c 0.9,0 1.4,0 1.4,1 0,0.55 -0.5,0.55 -1.3,0.55 h -4.4 c 1.8,7.08 2,8.08 2,8.37 0,0.85 -0.6,1.35 -1.4,1.35 -0.2,0 -1.6,-0.05 -2,-1.8 l -2,-7.92 h -4.6 c -1,0 -1.6,0 -1.6,-0.94 0,-0.61 0.5,-0.61 1.5,-0.61 h 4.3 c -3.6,-14.14 -3.8,-14.98 -3.8,-15.89 0,-2.69 1.9,-4.58 4.6,-4.58 5.1,0 8,7.27 8,7.68 0,0.5 -0.4,0.5 -0.6,0.5 -0.5,0 -0.5,-0.16 -0.8,-0.71 -2.1,-5.17 -4.8,-6.37 -6.5,-6.37 -1,0 -1.5,0.65 -1.5,2.29 0,1.19 0.1,1.55 0.3,2.4 z"
           id="path4843" /><path
           style="fill:#000000;stroke-width:0"
           d="m 1122.7,348.95 -0.1,0.17 -0.1,0.17 -0.1,0.16 -0.1,0.17 -0.1,0.15 -0.1,0.16 -0.1,0.15 -0.1,0.15 -0.1,0.14 -0.1,0.14 -0.1,0.13 -0.2,0.13 -0.1,0.12 -0.1,0.12 -0.2,0.12 -0.1,0.1 -0.1,0.11 -0.2,0.1 -0.1,0.09 -0.2,0.08 -0.2,0.08 -0.1,0.08 -0.2,0.07 -0.2,0.06 -0.1,0.05 -0.2,0.05 -0.2,0.04 -0.2,0.04 -0.2,0.02 -0.2,0.02 -0.2,0.01 -0.2,0.01 0.1,-1.1 c 3.2,0 3.9,-4.08 3.9,-4.37 0,-0.31 -0.1,-0.61 -0.2,-0.86 l -2.5,-9.77 c -0.2,-0.89 -0.2,-0.98 -1,-1.84 -2.1,-2.74 -4.2,-3.53 -5.6,-3.53 -2.5,0 -3.2,2.73 -3.2,4.69 0,2.48 1.6,8.6 2.8,10.9 1.5,2.94 3.8,4.78 5.8,4.78 l -0.1,1.1 c -5.8,0 -12,-7.32 -12,-14.6 0,-4.68 2.7,-7.97 6.6,-7.97 1,0 3.5,0.21 6.5,3.74 0.4,-2.1 2.1,-3.74 4.5,-3.74 1.8,0 2.9,1.14 3.7,2.74 0.9,1.8 1.5,4.84 1.5,4.94 0,0.5 -0.4,0.5 -0.6,0.5 -0.5,0 -0.5,-0.21 -0.7,-0.91 -0.8,-3.23 -1.7,-6.17 -3.8,-6.17 -1.3,0 -1.5,1.29 -1.5,2.29 0,1.1 0.1,1.49 0.7,3.69 0.5,2.1 0.6,2.6 1.1,4.49 l 1.8,6.97 c 0.3,1.39 0.3,1.5 0.3,1.68 0,0.86 -0.6,1.36 -1.4,1.36 -1.2,0 -2,-1.11 -2.1,-2.2 z"
           id="path4845" /><path
           style="fill:#000000;stroke-width:0"
           d="m 1144.8,342.57 v 0.37 0.39 0.39 l -0.1,0.41 v 0.84 l -0.1,0.88 v 0.92 l -0.1,0.95 -0.2,0.98 -0.1,1 -0.2,1.02 -0.3,1.04 -0.2,1.05 -0.3,1.06 -0.4,1.06 -0.4,1.07 -0.2,0.53 -0.2,0.53 -0.3,0.53 -0.2,0.53 c -3,6.13 -7.3,9.36 -7.8,9.36 -0.3,0 -0.5,-0.19 -0.5,-0.48 0,-0.16 0,-0.25 1,-1.16 4.9,-4.92 7.7,-12.84 7.7,-23.27 0,-8.51 -1.8,-17.28 -8,-23.56 -0.7,-0.59 -0.7,-0.7 -0.7,-0.84 0,-0.3 0.2,-0.5 0.5,-0.5 0.5,0 5,3.39 8,9.72 2.5,5.47 3.1,11 3.1,15.18 z"
           id="path4847" /><path
           style="fill:#000000;stroke-width:0"
           d="m 1197.7,346.42 h 0.2 0.1 0.2 v 0.01 h 0.1 l 0.1,0.01 v 0.01 l 0.1,0.01 0.1,0.01 0.1,0.01 v 0.02 l 0.1,0.02 0.1,0.02 v 0.03 l 0.1,0.02 v 0.03 l 0.1,0.04 v 0.04 l 0.1,0.04 v 0.04 l 0.1,0.05 v 0.03 0.03 0.03 0.03 0.03 l 0.1,0.03 v 0.03 0.04 0.03 0.04 0.04 0.04 0.04 0.04 0.05 0.04 c 0,1 -0.9,1 -1.6,1 h -29.9 c -0.7,0 -1.6,0 -1.6,-1 0,-0.98 0.9,-0.98 1.7,-0.98 z"
           id="path4849" /><path
           style="fill:#000000;stroke-width:0"
           d="m 1197.8,336.75 v 0 h 0.1 0.1 0.2 l 0.1,0.01 v 0 l 0.1,0.01 0.1,0.01 v 0.01 l 0.1,0.01 0.1,0.01 v 0.02 l 0.1,0.02 0.1,0.02 v 0.03 l 0.1,0.02 v 0.04 l 0.1,0.03 v 0.04 l 0.1,0.04 v 0.05 0.02 l 0.1,0.03 v 0.02 0.03 0.03 0.03 0.03 l 0.1,0.04 v 0.03 0.04 0.03 0.04 0.04 0.04 0.04 0.05 0.04 0.05 c 0,1 -0.9,1 -1.7,1 H 1168 c -0.8,0 -1.7,0 -1.7,-1 0,-1 0.9,-1 1.6,-1 z"
           id="path4851" /><path
           style="fill:#000000;stroke-width:0"
           d="m 1237.2,379.59 0.2,1.28 3.4,13.56 c 0.4,1.74 0.5,1.89 2.6,1.89 h 4.8 c 4.2,0 6.8,-1.34 6.8,-4.78 0,-1.95 -1,-6.23 -2.9,-8.03 -2.5,-2.23 -5.5,-2.64 -7.7,-2.64 h -7 l -0.2,-1.28 h 8.4 c 7.1,0 14,5.17 14,10.75 0,3.84 -3.2,7.53 -9.8,7.53 h -16.1 c -1,0 -1.5,0 -1.5,-0.95 0,-0.6 0.4,-0.6 1.4,-0.6 0.7,0 1.6,-0.04 2.2,-0.09 0.8,-0.11 1.1,-0.25 1.1,-0.8 0,-0.2 -0.1,-0.36 -0.2,-0.95 l -6.7,-26.75 c -0.5,-1.95 -0.6,-2.34 -4.5,-2.34 -0.9,0 -1.4,0 -1.4,-0.96 0,-0.59 0.6,-0.59 0.7,-0.59 1.4,0 5,0.16 6.3,0.16 1.1,0 2.2,-0.07 3.2,-0.07 1.1,0 2.2,-0.09 3.3,-0.09 0.3,0 1,0 1,1 0,0.55 -0.5,0.55 -1.4,0.55 -1.9,0 -3.3,0 -3.3,0.89 0,0.29 0.1,0.54 0.2,0.84 z"
           id="path4853" /><path
           style="fill:#000000;stroke-width:0"
           d="m 1277.6,351.89 v 0.02 0.03 0.01 0.02 0.01 l -0.1,0.02 v 0.01 0.02 0.02 0.02 0.02 0.03 0.02 0.03 l -0.1,0.03 v 0.03 0.03 0.04 l -0.1,0.02 v 0.02 0.02 0.02 0.02 l -0.1,0.03 v 0.02 0.02 0.03 0.02 l -0.1,0.03 v 0.03 0.03 0.03 l -0.1,0.03 v 0.03 0.03 l -0.1,0.03 v 0.04 0.03 l -0.1,0.04 v 0.03 0.04 l -0.1,0.04 c -6.2,6.28 -7.8,15.69 -7.8,23.31 0,8.67 1.9,17.35 8,23.57 0.7,0.6 0.7,0.7 0.7,0.85 0,0.35 -0.2,0.49 -0.5,0.49 -0.5,0 -5,-3.38 -7.9,-9.7 -2.6,-5.49 -3.2,-11.02 -3.2,-15.21 0,-3.89 0.6,-9.9 3.3,-15.54 3,-6.13 7.3,-9.36 7.8,-9.36 0.3,0 0.5,0.14 0.5,0.5 z"
           id="path4855" /><path
           style="fill:#000000;stroke-width:0"
           d="m 1306.1,397.87 v 0 0.01 0 0.02 0.01 0.01 0.02 0.02 0.02 0.02 0.02 0.02 0.02 0.03 l -0.1,0.02 v 0.03 0.02 0.03 0.02 0.02 l -0.1,0.03 v 0.01 0.01 0.01 0.01 0.01 0.01 l -0.1,0.01 v 0.01 0.01 0.01 0 0.01 l -0.1,0.01 v 0.01 0 0.01 h -0.1 v 0.01 0 0 h -0.1 v 0.01 0 0 c -0.8,0 -5.5,-0.46 -6.4,-0.55 -0.4,-0.05 -0.7,-0.3 -0.7,-0.95 0,-0.6 0.5,-0.6 1.2,-0.6 2.4,0 2.5,-0.34 2.5,-0.84 l -0.1,-1 -3,-11.81 c -0.9,1.84 -2.4,3.19 -4.6,3.19 v -1.1 c 3.3,0 4,-4.08 4,-4.37 0,-0.32 -0.1,-0.61 -0.2,-0.86 l -2.5,-9.77 c -0.2,-0.89 -0.2,-0.98 -1,-1.84 -2.1,-2.74 -4.2,-3.53 -5.6,-3.53 -2.5,0 -3.2,2.73 -3.2,4.68 0,2.49 1.6,8.61 2.8,10.91 1.5,2.94 3.8,4.78 5.7,4.78 v 1.1 c -5.8,0 -12,-7.32 -12,-14.6 0,-4.69 2.7,-7.97 6.6,-7.97 1,0 3.5,0.21 6.5,3.74 0.4,-2.1 2.1,-3.74 4.5,-3.74 1.8,0 2.9,1.14 3.7,2.74 0.9,1.79 1.5,4.84 1.5,4.93 0,0.5 -0.4,0.5 -0.6,0.5 -0.5,0 -0.5,-0.2 -0.7,-0.9 -0.8,-3.24 -1.7,-6.17 -3.8,-6.17 -1.3,0 -1.5,1.29 -1.5,2.29 0,1.19 0.1,1.55 0.3,2.39 z"
           id="path4857" /><path
           style="fill:#000000;stroke-width:0"
           d="m 1324.9,382.67 -0.1,0.17 -0.1,0.17 -0.1,0.16 -0.1,0.16 -0.1,0.16 -0.1,0.16 -0.1,0.15 -0.1,0.14 -0.1,0.15 -0.1,0.13 -0.1,0.14 -0.2,0.13 -0.1,0.12 -0.1,0.12 -0.2,0.11 -0.1,0.11 -0.1,0.11 -0.2,0.09 -0.1,0.1 -0.2,0.08 -0.2,0.08 -0.1,0.08 -0.2,0.07 -0.2,0.06 -0.1,0.05 -0.2,0.05 -0.2,0.04 -0.2,0.03 -0.2,0.03 -0.2,0.02 -0.2,0.01 -0.2,0.01 0.1,-1.1 c 3.2,0 3.9,-4.08 3.9,-4.37 0,-0.32 -0.1,-0.61 -0.1,-0.86 l -2.5,-9.77 c -0.3,-0.89 -0.3,-0.98 -1,-1.84 -2.2,-2.74 -4.3,-3.53 -5.7,-3.53 -2.4,0 -3.2,2.73 -3.2,4.68 0,2.49 1.6,8.61 2.8,10.91 1.5,2.94 3.8,4.78 5.8,4.78 l -0.1,1.1 c -5.8,0 -12,-7.32 -12,-14.6 0,-4.69 2.8,-7.97 6.6,-7.97 1,0 3.5,0.21 6.5,3.74 0.4,-2.1 2.2,-3.74 4.5,-3.74 1.8,0 2.9,1.14 3.7,2.74 0.9,1.79 1.5,4.84 1.5,4.93 0,0.5 -0.4,0.5 -0.6,0.5 -0.5,0 -0.5,-0.2 -0.7,-0.9 -0.8,-3.24 -1.7,-6.17 -3.7,-6.17 -1.4,0 -1.5,1.29 -1.5,2.29 0,1.1 0,1.49 0.6,3.69 0.6,2.09 0.6,2.59 1.1,4.49 l 1.8,6.96 c 0.3,1.39 0.3,1.5 0.3,1.69 0,0.86 -0.6,1.36 -1.4,1.36 -1.2,0 -1.9,-1.11 -2.1,-2.2 z"
           id="path4859" /><path
           style="fill:#000000;stroke-width:0"
           d="m 1342.9,383.76 h 4.6 c 1,0 1.5,0 1.5,1 0,0.55 -0.5,0.55 -1.4,0.55 h -4.4 c 1.8,7.08 2.1,8.08 2.1,8.37 0,0.85 -0.6,1.35 -1.4,1.35 -0.2,0 -1.6,-0.05 -2,-1.8 l -2,-7.92 h -4.7 c -1,0 -1.5,0 -1.5,-0.94 0,-0.61 0.4,-0.61 1.4,-0.61 h 4.4 c -3.6,-14.14 -3.8,-14.98 -3.8,-15.89 0,-2.69 1.9,-4.58 4.6,-4.58 5.1,0 7.9,7.27 7.9,7.67 0,0.5 -0.4,0.5 -0.6,0.5 -0.4,0 -0.5,-0.15 -0.7,-0.7 -2.1,-5.17 -4.8,-6.37 -6.5,-6.37 -1,0 -1.5,0.65 -1.5,2.29 0,1.19 0.1,1.55 0.3,2.39 z"
           id="path4861" /><path
           style="fill:#000000;stroke-width:0"
           d="m 1369.2,382.67 -0.1,0.17 -0.1,0.17 -0.1,0.16 -0.1,0.16 -0.1,0.16 -0.1,0.16 -0.1,0.15 -0.1,0.14 -0.1,0.15 -0.1,0.13 -0.2,0.14 -0.1,0.13 -0.1,0.12 -0.1,0.12 -0.2,0.11 -0.1,0.11 -0.2,0.11 -0.1,0.09 -0.2,0.1 -0.1,0.08 -0.2,0.08 -0.1,0.08 -0.2,0.07 -0.2,0.06 -0.2,0.05 -0.1,0.05 -0.2,0.04 -0.2,0.03 -0.2,0.03 -0.2,0.02 -0.2,0.01 -0.2,0.01 v -1.1 c 3.3,0 4,-4.08 4,-4.37 0,-0.32 -0.1,-0.61 -0.2,-0.86 l -2.5,-9.77 c -0.2,-0.89 -0.2,-0.98 -1,-1.84 -2.1,-2.74 -4.2,-3.53 -5.6,-3.53 -2.5,0 -3.2,2.73 -3.2,4.68 0,2.49 1.6,8.61 2.8,10.91 1.5,2.94 3.8,4.78 5.7,4.78 v 1.1 c -5.8,0 -12,-7.32 -12,-14.6 0,-4.69 2.7,-7.97 6.6,-7.97 1,0 3.5,0.21 6.5,3.74 0.4,-2.1 2.1,-3.74 4.5,-3.74 1.8,0 2.9,1.14 3.7,2.74 0.9,1.79 1.5,4.84 1.5,4.93 0,0.5 -0.5,0.5 -0.6,0.5 -0.5,0 -0.5,-0.2 -0.7,-0.9 -0.8,-3.24 -1.7,-6.17 -3.8,-6.17 -1.3,0 -1.5,1.29 -1.5,2.29 0,1.1 0.1,1.49 0.7,3.69 0.5,2.09 0.6,2.59 1.1,4.49 l 1.8,6.96 c 0.3,1.39 0.3,1.5 0.3,1.69 0,0.86 -0.6,1.36 -1.4,1.36 -1.2,0 -2,-1.11 -2.1,-2.2 z"
           id="path4863" /><path
           style="fill:#000000;stroke-width:0"
           d="m 1384.8,399.42 v 0.16 0.17 0.16 0.08 0.08 0.08 0.08 l -0.1,0.07 v 0.07 0.07 0.07 0.07 0.06 l -0.1,0.06 v 0.06 0.06 l -0.1,0.05 v 0.05 0.05 l -0.1,0.04 v 0.04 l -0.1,0.01 v 0.02 0.02 0.01 l -0.1,0.01 v 0.02 0.01 l -0.1,0.01 v 0.01 l -0.1,0.01 v 0 0.01 h -0.1 v 0.01 h -0.1 v 0 c -1,0 -1,-0.89 -1,-1.78 v -46.24 c 0,-0.9 0,-1.79 1,-1.79 1,0 1,0.89 1,1.79 z"
           id="path4865" /><path
           style="fill:#000000;stroke-width:0"
           d="m 1413.3,388.75 v 0.32 0.33 0.36 0.37 0.39 l -0.1,0.39 v 0.41 l -0.1,0.41 v 0.42 l -0.1,0.43 -0.1,0.42 -0.1,0.43 -0.1,0.42 -0.2,0.42 -0.1,0.42 -0.2,0.4 -0.1,0.4 -0.2,0.38 -0.2,0.37 -0.2,0.36 -0.3,0.34 -0.2,0.32 -0.3,0.3 -0.3,0.27 -0.3,0.25 -0.1,0.12 -0.2,0.1 -0.2,0.11 -0.2,0.09 -0.1,0.08 -0.2,0.08 -0.2,0.07 -0.2,0.06 -0.2,0.05 -0.2,0.05 -0.3,0.03 -0.2,0.03 -0.2,0.01 h -0.3 v -1.09 c 2.4,0 2.7,-3.19 2.7,-6.03 0,-2.44 -0.3,-4.98 -1.6,-9.92 H 1398 c 0.9,3.2 1.9,7.19 3.9,10.72 1.3,2.43 3.2,5.23 5.4,5.23 v 1.09 c -6.9,0 -14.5,-14.04 -14.5,-25.45 0,-4.69 1.4,-10.22 5.9,-10.22 v 1.1 c -1.6,0 -2.7,1.45 -2.7,6.07 0,2.1 0.3,4.99 1.6,9.86 h 10.4 c -0.5,-2.28 -1.6,-6.51 -3.5,-10.11 -1.7,-3.39 -3.6,-5.82 -5.8,-5.82 v -1.1 c 7.1,0 14.6,14.3 14.6,25.46 z"
           id="path4867" /><path
           style="fill:#000000;stroke-width:0"
           d="m 1429.9,376.29 v 0.37 0.39 0.39 0.41 l -0.1,0.84 v 0.88 l -0.1,0.92 -0.1,0.95 -0.2,0.98 -0.1,1 -0.2,1.02 -0.2,1.03 -0.3,1.06 -0.3,1.05 -0.4,1.07 -0.4,1.07 -0.2,0.53 -0.2,0.53 -0.2,0.53 -0.3,0.53 c -3,6.12 -7.3,9.36 -7.8,9.36 -0.2,0 -0.5,-0.19 -0.5,-0.49 0,-0.15 0,-0.25 1,-1.15 4.9,-4.92 7.7,-12.85 7.7,-23.27 0,-8.51 -1.8,-17.28 -8,-23.56 -0.7,-0.59 -0.7,-0.7 -0.7,-0.84 0,-0.3 0.3,-0.5 0.5,-0.5 0.5,0 5,3.39 8,9.72 2.5,5.46 3.1,11 3.1,15.18 z"
           id="path4869" /><path
           style="fill:#000000;stroke-width:0"
           d="m 1449.9,379.59 0.2,1.28 3.4,13.56 c 0.4,1.74 0.6,1.89 2.7,1.89 h 4.8 c 4.1,0 6.8,-1.34 6.8,-4.78 0,-1.95 -1,-6.23 -3,-8.03 -2.5,-2.23 -5.5,-2.64 -7.7,-2.64 h -7 l -0.2,-1.28 h 8.5 c 7.1,0 14,5.17 14,10.75 0,3.84 -3.3,7.53 -9.8,7.53 h -16.2 c -0.9,0 -1.5,0 -1.5,-0.95 0,-0.6 0.5,-0.6 1.5,-0.6 0.6,0 1.5,-0.04 2.1,-0.09 0.8,-0.11 1.1,-0.25 1.1,-0.8 0,-0.2 0,-0.36 -0.2,-0.95 l -6.7,-26.75 c -0.5,-1.95 -0.5,-2.34 -4.5,-2.34 -0.8,0 -1.4,0 -1.4,-0.96 0,-0.59 0.6,-0.59 0.8,-0.59 1.4,0 4.9,0.16 6.3,0.16 1,0 2.1,-0.07 3.2,-0.07 1.1,0 2.2,-0.09 3.2,-0.09 0.4,0 1,0 1,1 0,0.55 -0.4,0.55 -1.4,0.55 -1.8,0 -3.2,0 -3.2,0.89 0,0.29 0.1,0.54 0.1,0.84 z"
           id="path4871" /><path
           style="fill:#000000;stroke-width:0"
           d="m 1490.3,351.89 v 0.02 0.03 0.01 0.02 0.01 0.02 0.01 0.02 0.02 0.02 l -0.1,0.02 v 0.03 0.02 0.03 0.03 0.03 l -0.1,0.03 v 0.04 0.02 0.02 l -0.1,0.02 v 0.02 0.02 0.03 0.02 l -0.1,0.02 v 0.03 0.02 0.03 l -0.1,0.03 v 0.03 0.03 0.03 l -0.1,0.03 v 0.03 0.03 l -0.1,0.04 v 0.03 0.04 l -0.1,0.03 v 0.04 0.04 c -6.3,6.28 -7.8,15.69 -7.8,23.31 0,8.67 1.8,17.35 8,23.57 0.6,0.6 0.6,0.7 0.6,0.85 0,0.35 -0.2,0.49 -0.5,0.49 -0.5,0 -5,-3.38 -7.9,-9.7 -2.6,-5.49 -3.1,-11.02 -3.1,-15.21 0,-3.89 0.5,-9.9 3.2,-15.54 3,-6.13 7.3,-9.36 7.8,-9.36 0.3,0 0.5,0.14 0.5,0.5 z"
           id="path4873" /><path
           style="fill:#000000;stroke-width:0"
           d="m 1515.8,388.75 v 0.32 0.33 0.36 0.37 l -0.1,0.39 v 0.39 l -0.1,0.41 v 0.41 l -0.1,0.42 -0.1,0.43 V 393 l -0.1,0.43 -0.2,0.42 -0.1,0.42 -0.1,0.42 -0.2,0.4 -0.1,0.4 -0.2,0.38 -0.2,0.37 -0.3,0.36 -0.2,0.34 -0.2,0.32 -0.3,0.3 -0.3,0.27 -0.3,0.25 -0.2,0.12 -0.1,0.1 -0.2,0.11 -0.2,0.09 -0.2,0.08 -0.2,0.08 -0.2,0.07 -0.2,0.06 -0.2,0.05 -0.2,0.05 -0.2,0.03 -0.2,0.03 -0.2,0.01 h -0.3 v -1.09 c 2.4,0 2.7,-3.19 2.7,-6.03 0,-2.44 -0.4,-4.98 -1.6,-9.92 h -10.4 c 0.9,3.2 1.9,7.19 3.8,10.72 1.4,2.43 3.2,5.23 5.5,5.23 v 1.09 c -6.9,0 -14.6,-14.04 -14.6,-25.45 0,-4.69 1.5,-10.22 6,-10.22 v 1.1 c -1.6,0 -2.7,1.45 -2.7,6.07 0,2.1 0.3,4.99 1.6,9.86 h 10.4 c -0.6,-2.28 -1.6,-6.51 -3.5,-10.11 -1.8,-3.39 -3.6,-5.82 -5.8,-5.82 v -1.1 c 7,0 14.6,14.3 14.6,25.46 z"
           id="path4875" /><path
           style="fill:#000000;stroke-width:0"
           d="m 1532.4,376.29 v 0.37 0.39 l -0.1,0.39 v 0.41 0.84 l -0.1,0.88 v 0.92 l -0.2,0.95 -0.1,0.98 -0.2,1 -0.1,1.02 -0.3,1.03 -0.2,1.06 -0.4,1.05 -0.3,1.07 -0.4,1.07 -0.2,0.53 -0.2,0.53 -0.3,0.53 -0.2,0.53 c -3,6.12 -7.3,9.36 -7.8,9.36 -0.3,0 -0.5,-0.19 -0.5,-0.49 0,-0.15 0,-0.25 1,-1.15 4.8,-4.92 7.7,-12.85 7.7,-23.27 0,-8.51 -1.9,-17.28 -8,-23.56 -0.7,-0.59 -0.7,-0.7 -0.7,-0.84 0,-0.3 0.2,-0.5 0.5,-0.5 0.5,0 5,3.39 7.9,9.72 2.6,5.46 3.2,11 3.2,15.18 z"
           id="path4877" /><polyline
           style="fill:#000000;fill-rule:nonzero;stroke-width:0"
           points="1222,342 1537.2,342 1537.2,344.04 1222,344.04 "
           id="polyline4879" /><path
           style="fill:#000000;stroke-width:0"
           d="m 1307.7,311.67 0.2,1.28 3.4,13.57 c 0.5,1.73 0.6,1.89 2.7,1.89 h 4.8 c 4.1,0 6.8,-1.35 6.8,-4.79 0,-1.95 -1,-6.23 -3,-8.03 -2.5,-2.23 -5.4,-2.64 -7.7,-2.64 h -7 l -0.2,-1.28 h 8.5 c 7.1,0 14,5.17 14,10.75 0,3.85 -3.3,7.53 -9.8,7.53 h -16.2 c -0.9,0 -1.4,0 -1.4,-0.95 0,-0.59 0.4,-0.59 1.4,-0.59 0.6,0 1.6,-0.05 2.1,-0.1 0.8,-0.11 1.1,-0.25 1.1,-0.79 0,-0.21 0,-0.36 -0.2,-0.96 l -6.6,-26.75 c -0.5,-1.95 -0.6,-2.34 -4.6,-2.34 -0.8,0 -1.4,0 -1.4,-0.95 0,-0.6 0.6,-0.6 0.8,-0.6 1.4,0 4.9,0.16 6.3,0.16 1.1,0 2.1,-0.06 3.2,-0.06 1.1,0 2.2,-0.1 3.2,-0.1 0.4,0 1,0 1,1 0,0.55 -0.4,0.55 -1.4,0.55 -1.8,0 -3.2,0 -3.2,0.89 0,0.3 0.1,0.55 0.1,0.84 z"
           id="path4881" /><path
           style="fill:#000000;stroke-width:0"
           d="m 1348.1,283.97 v 0.03 0.02 0.02 0.01 0.01 0.02 0.02 0.01 0.02 0.02 0.03 0.02 l -0.1,0.02 v 0.03 0.03 0.03 0.04 l -0.1,0.03 v 0.02 0.02 0.02 0.02 l -0.1,0.03 v 0.02 0.02 0.03 l -0.1,0.02 v 0.03 0.02 0.03 l -0.1,0.03 v 0.03 0.03 0.03 l -0.1,0.03 v 0.03 0.04 l -0.1,0.03 v 0.04 0.04 l -0.1,0.03 v 0.04 c -6.2,6.28 -7.8,15.69 -7.8,23.32 0,8.67 1.9,17.34 8,23.56 0.6,0.61 0.6,0.7 0.6,0.86 0,0.34 -0.2,0.48 -0.5,0.48 -0.5,0 -4.9,-3.37 -7.9,-9.7 -2.5,-5.49 -3.1,-11.02 -3.1,-15.2 0,-3.9 0.5,-9.91 3.3,-15.55 2.9,-6.13 7.2,-9.36 7.7,-9.36 0.3,0 0.5,0.14 0.5,0.5 z"
           id="path4883" /><path
           style="fill:#000000;stroke-width:0"
           d="m 1376.7,329.95 v 0.01 0 0.01 0.01 0.01 0.01 0.02 0.02 0.02 l -0.1,0.02 v 0.02 0.02 0.03 0.02 0.03 0.02 0.02 0.03 l -0.1,0.02 v 0.03 0.02 0.01 0.01 0.01 0.01 l -0.1,0.01 v 0.01 0.01 0.01 0.01 0.01 l -0.1,0.01 v 0 0.01 0.01 0 l -0.1,0.01 v 0 0.01 0 h -0.1 v 0.01 0 h -0.1 v 0 c -0.7,0 -5.5,-0.45 -6.3,-0.55 -0.4,-0.04 -0.7,-0.29 -0.7,-0.95 0,-0.59 0.4,-0.59 1.2,-0.59 2.4,0 2.5,-0.35 2.5,-0.85 l -0.2,-1 -3,-11.81 c -0.9,1.84 -2.3,3.19 -4.5,3.19 v -1.1 c 3.2,0 3.9,-4.07 3.9,-4.37 0,-0.31 -0.1,-0.61 -0.1,-0.86 l -2.5,-9.77 c -0.2,-0.89 -0.2,-0.98 -1,-1.84 -2.2,-2.73 -4.2,-3.53 -5.6,-3.53 -2.5,0 -3.2,2.73 -3.2,4.69 0,2.48 1.6,8.61 2.7,10.9 1.6,2.94 3.8,4.78 5.8,4.78 v 1.1 c -5.9,0 -12,-7.32 -12,-14.6 0,-4.68 2.7,-7.96 6.6,-7.96 1,0 3.5,0.2 6.5,3.73 0.4,-2.09 2.1,-3.73 4.5,-3.73 1.7,0 2.9,1.14 3.7,2.73 0.8,1.8 1.5,4.84 1.5,4.94 0,0.5 -0.5,0.5 -0.6,0.5 -0.5,0 -0.6,-0.21 -0.7,-0.91 -0.9,-3.23 -1.8,-6.17 -3.8,-6.17 -1.4,0 -1.5,1.3 -1.5,2.3 0,1.18 0.1,1.54 0.3,2.39 z"
           id="path4885" /><path
           style="fill:#000000;stroke-width:0"
           d="m 1395.4,314.75 v 0.17 l -0.1,0.17 -0.1,0.16 -0.1,0.17 -0.1,0.15 -0.1,0.16 -0.1,0.15 -0.1,0.15 -0.1,0.14 -0.2,0.14 -0.1,0.13 -0.1,0.13 -0.1,0.12 -0.2,0.12 -0.1,0.12 -0.1,0.11 -0.2,0.1 -0.1,0.1 -0.2,0.09 -0.1,0.09 -0.2,0.08 -0.2,0.07 -0.1,0.07 -0.2,0.06 -0.2,0.05 -0.1,0.05 -0.2,0.04 -0.2,0.04 -0.2,0.02 -0.2,0.02 -0.2,0.01 -0.2,0.01 v -1.1 c 3.3,0 4,-4.07 4,-4.37 0,-0.31 -0.1,-0.61 -0.2,-0.86 l -2.5,-9.77 c -0.2,-0.89 -0.2,-0.98 -1,-1.84 -2.2,-2.73 -4.2,-3.53 -5.6,-3.53 -2.5,0 -3.2,2.73 -3.2,4.69 0,2.48 1.6,8.61 2.7,10.9 1.6,2.94 3.8,4.78 5.8,4.78 v 1.1 c -5.8,0 -12,-7.32 -12,-14.6 0,-4.68 2.7,-7.96 6.6,-7.96 1,0 3.5,0.2 6.5,3.73 0.4,-2.09 2.1,-3.73 4.5,-3.73 1.7,0 2.9,1.14 3.7,2.73 0.8,1.8 1.5,4.84 1.5,4.94 0,0.5 -0.5,0.5 -0.6,0.5 -0.5,0 -0.5,-0.21 -0.7,-0.91 -0.8,-3.23 -1.8,-6.17 -3.8,-6.17 -1.3,0 -1.5,1.3 -1.5,2.3 0,1.09 0.1,1.48 0.7,3.68 0.5,2.1 0.6,2.6 1.1,4.49 l 1.7,6.97 c 0.4,1.39 0.4,1.5 0.4,1.68 0,0.86 -0.6,1.36 -1.4,1.36 -1.2,0 -2,-1.11 -2.2,-2.2 z"
           id="path4887" /><path
           style="fill:#000000;stroke-width:0"
           d="m 1413.4,315.84 h 4.7 c 1,0 1.5,0 1.5,1 0,0.55 -0.5,0.55 -1.4,0.55 h -4.4 c 1.8,7.08 2.1,8.08 2.1,8.38 0,0.84 -0.6,1.34 -1.5,1.34 -0.1,0 -1.5,-0.05 -2,-1.8 l -1.9,-7.92 h -4.7 c -1,0 -1.5,0 -1.5,-0.94 0,-0.61 0.4,-0.61 1.4,-0.61 h 4.4 c -3.6,-14.14 -3.8,-14.98 -3.8,-15.89 0,-2.68 1.9,-4.57 4.6,-4.57 5,0 7.9,7.26 7.9,7.67 0,0.5 -0.4,0.5 -0.6,0.5 -0.4,0 -0.5,-0.16 -0.8,-0.71 -2.1,-5.17 -4.7,-6.37 -6.4,-6.37 -1.1,0 -1.6,0.65 -1.6,2.3 0,1.18 0.1,1.54 0.3,2.39 z"
           id="path4889" /><path
           style="fill:#000000;stroke-width:0"
           d="m 1439.7,314.75 -0.1,0.17 v 0.17 l -0.1,0.16 -0.1,0.17 -0.1,0.15 -0.1,0.16 -0.1,0.15 -0.1,0.15 -0.2,0.14 -0.1,0.14 -0.1,0.13 -0.1,0.13 -0.1,0.12 -0.2,0.12 -0.1,0.12 -0.2,0.11 -0.1,0.1 -0.1,0.1 -0.2,0.09 -0.2,0.09 -0.1,0.08 -0.2,0.07 -0.1,0.07 -0.2,0.06 -0.2,0.05 -0.2,0.05 -0.2,0.04 -0.1,0.04 -0.2,0.02 -0.2,0.02 -0.2,0.01 -0.2,0.01 v -1.1 c 3.2,0 3.9,-4.07 3.9,-4.37 0,-0.31 -0.1,-0.61 -0.1,-0.86 l -2.5,-9.77 c -0.3,-0.89 -0.3,-0.98 -1,-1.84 -2.2,-2.73 -4.2,-3.53 -5.6,-3.53 -2.5,0 -3.2,2.73 -3.2,4.69 0,2.48 1.6,8.61 2.7,10.9 1.6,2.94 3.8,4.78 5.8,4.78 v 1.1 c -5.9,0 -12,-7.32 -12,-14.6 0,-4.68 2.7,-7.96 6.6,-7.96 1,0 3.5,0.2 6.4,3.73 0.5,-2.09 2.2,-3.73 4.6,-3.73 1.7,0 2.9,1.14 3.7,2.73 0.8,1.8 1.5,4.84 1.5,4.94 0,0.5 -0.5,0.5 -0.6,0.5 -0.5,0 -0.6,-0.21 -0.7,-0.91 -0.9,-3.23 -1.8,-6.17 -3.8,-6.17 -1.4,0 -1.5,1.3 -1.5,2.3 0,1.09 0.1,1.48 0.6,3.68 0.6,2.1 0.7,2.6 1.1,4.49 l 1.8,6.97 c 0.4,1.39 0.4,1.5 0.4,1.68 0,0.86 -0.6,1.36 -1.5,1.36 -1.2,0 -1.9,-1.11 -2.1,-2.2 z"
           id="path4891" /><path
           style="fill:#000000;stroke-width:0"
           d="m 1461.8,308.38 v 0.37 0.38 0.39 0.41 0.84 l -0.1,0.88 -0.1,0.92 -0.1,0.95 -0.1,0.98 -0.2,1 -0.2,1.02 -0.2,1.04 -0.3,1.05 -0.3,1.06 -0.3,1.06 -0.4,1.07 -0.2,0.53 -0.3,0.53 -0.2,0.53 -0.3,0.53 c -2.9,6.13 -7.2,9.36 -7.7,9.36 -0.3,0 -0.5,-0.19 -0.5,-0.48 0,-0.16 0,-0.25 0.9,-1.16 4.9,-4.92 7.7,-12.84 7.7,-23.26 0,-8.52 -1.8,-17.29 -8,-23.57 -0.6,-0.59 -0.6,-0.7 -0.6,-0.84 0,-0.3 0.2,-0.5 0.5,-0.5 0.5,0 4.9,3.39 7.9,9.72 2.5,5.47 3.1,11 3.1,15.19 z"
           id="path4893" /></g>    </g>
    <rect
       y="107.37227"
       x="12.294398"
       height="18.976135"
       width="62.674702"
       id="rect4939"
       style="fill:#890000;fill-opacity:0.17785238;stroke:none;stroke-width:0.2121354;stroke-opacity:1" />
    <rect
       y="96.815109"
       x="96.943512"
       height="18.307961"
       width="63.079376"
       id="rect4939-9"
       style="fill:#000061;fill-opacity:0.17785238;stroke:none;stroke-width:0.20903875;stroke-opacity:1" />
    <rect
       y="96.815109"
       x="160.9442"
       height="18.307961"
       width="30.955324"
       id="rect4939-2"
       style="fill:#006e00;fill-opacity:0.17785238;stroke:none;stroke-width:0.14643694;stroke-opacity:1" />
    <text
       id="text5507"
       y="82.090263"
       x="19.718481"
       style="font-style:normal;font-weight:normal;font-size:10.58333302px;line-height:1.25;font-family:sans-serif;letter-spacing:0px;word-spacing:0px;fill:#a00000;fill-opacity:1;stroke:none;stroke-width:0.26458332"
       xml:space="preserve"><tspan
         style="fill:#a00000;fill-opacity:1;stroke-width:0.26458332"
         y="82.090263"
         x="19.718481"
         id="tspan5505">Posterior</tspan></text>
    <text
       id="text5511"
       y="82.090263"
       x="101.76907"
       style="font-style:normal;font-weight:normal;font-size:10.58333302px;line-height:1.25;font-family:sans-serif;letter-spacing:0px;word-spacing:0px;fill:#00009e;fill-opacity:1;stroke:none;stroke-width:0.26458332"
       xml:space="preserve"><tspan
         style="fill:#00009e;fill-opacity:1;stroke-width:0.26458332"
         y="82.090263"
         x="101.76907"
         id="tspan5509">Likelihood</tspan></text>
    <text
       id="text5515"
       y="82.090263"
       x="163.74304"
       style="font-style:normal;font-weight:normal;font-size:10.58333302px;line-height:1.25;font-family:sans-serif;letter-spacing:0px;word-spacing:0px;fill:#007a00;fill-opacity:1;stroke:none;stroke-width:0.26458332"
       xml:space="preserve"><tspan
         style="fill:#007a00;fill-opacity:1;stroke-width:0.26458332"
         y="82.090263"
         x="163.74304"
         id="tspan5513">Prior</tspan></text>
  </g>
</svg>
