<?xml version="1.0" encoding="UTF-8" standalone="no"?>
<svg
   xmlns:dc="http://purl.org/dc/elements/1.1/"
   xmlns:cc="http://creativecommons.org/ns#"
   xmlns:rdf="http://www.w3.org/1999/02/22-rdf-syntax-ns#"
   xmlns:svg="http://www.w3.org/2000/svg"
   xmlns="http://www.w3.org/2000/svg"
   viewBox="0 0 694.66669 378.66666"
   height="378.66666"
   width="694.66669"
   xml:space="preserve"
   id="svg2"
   version="1.1"><metadata
     id="metadata8"><rdf:RDF><cc:Work
         rdf:about=""><dc:format>image/svg+xml</dc:format><dc:type
           rdf:resource="http://purl.org/dc/dcmitype/StillImage" /><dc:title></dc:title></cc:Work></rdf:RDF></metadata><defs
     id="defs6" /><g
     transform="matrix(1.3333333,0,0,-1.3333333,0,378.66667)"
     id="g10"><g
       transform="scale(0.1)"
       id="g12"><g
         transform="scale(10)"
         id="g14"><text
           id="text68"
           style="font-variant:normal;font-weight:normal;font-size:9px;font-family:ArialMT;-inkscape-font-specification:ArialMT;writing-mode:lr-tb;fill:#000000;fill-opacity:1;fill-rule:nonzero;stroke:none"
           transform="matrix(1,0,0,-1,217.325,266.157)"><tspan
             id="tspan16"
             y="0"
             x="0 5.4990001 10.503 13.5 19.997999 25.029148 28.026148 33.030148 40.527149 45.558296 50.562298 55.566296">ForwardModel</tspan><tspan
             id="tspan18"
             y="31.180901"
             x="-184.834 -178.83099 -174.33099 -169.327 -164.323 -161.29886 -159.30086 -151.80385 -146.79985 -141.79585 -139.29385 -134.28986 -132.26471 -129.76271 -124.75871 -119.7547 -117.2527">Experimental data</tspan><tspan
             id="tspan20"
             y="-11.3386"
             x="134.20599 140.209 144.709 147.211 152.215 155.21201 160.216 165.24715 167.24515 169.74715 177.24416 182.24815 187.25215 192.25615 194.2813 196.78329 198.7813 206.27829 211.2823 213.2803 218.2843 225.80815 230.81215 235.81615 238.31815 243.32216 245.82416 247.82216 252.82616">External model implementation</tspan><tspan
             id="tspan22"
             y="1.4372"
             x="149.00681 152.0038 157.0078 159.5098 164.51379 167.01579 169.51781 171.51579 176.51981 179.0218 185.0248 189.5248 192.02679 197.03081 202.03481 207.06595 209.56795 212.06995 218.56795 221.06995 223.57195 230.06995 235.32594 240.58195">(e.g. in Python, C, C++,</tspan><tspan
             id="tspan24"
             y="14.213"
             x="142.50288 149.00089 150.99889 153.50089 158.50488 161.0069 167.50488 174.00288 180.50089 186.53104 189.03304 191.53503 198.53703 203.54103 208.54504 213.54904 221.04604 227.04904 229.55104 232.05304 237.05704 239.55904 244.05904 246.56104">with CUDA, OpenMPI etc.)</tspan><tspan
             id="tspan26"
             y="47.105598"
             x="-159.03612 -156.5341 -154.53612 -147.03911 -142.03511">times</tspan><tspan
             id="tspan28"
             y="56.6931"
             x="-51.22311 -45.220112 -43.222111 -38.218109 -33.214111 -31.188961 -26.184961 -19.182962 -14.178962 -11.676962 -5.6739616 -2.6769617 2.3270385 7.3581867 9.3561869 14.360187 21.857187 24.359186 26.699186 29.201187 36.698185 41.702187 43.727337 46.229336 48.227337 55.229336 60.233334 62.735336 67.739334 72.743332 75.245338 81.248337 84.245338 89.249336 94.280487 96.278481 101.28249">SingleOutProblem | MultiOutputProblem</tspan><tspan
             id="tspan30"
             y="127.5591"
             x="-197.17711 -191.1741 -188.17711 -185.15295 -180.14896 -177.15196 -169.65497 -164.62381 -159.61981 -155.11981 -150.11581 -147.11882 210.69489 215.69888 220.7029 225.70689 231.70988 238.23503">ErrorMeasureLogPDF</tspan><tspan
             id="tspan32"
             y="70.866096"
             x="201.67731 206.6813 211.6853 216.68932 222.69231 227.72346 232.22346 234.72546 239.72946 242.72646 244.72446 249.72845">LogPosterior</tspan><tspan
             id="tspan34"
             y="209.7641"
             x="190.3679 196.86591 201.8699 203.8679 206.3699 211.37392 214.37091 221.89476 226.89876 231.90277 236.90677 242.93681 245.93382 247.93182 252.93582">UniformLogPrior</tspan><tspan
             id="tspan36"
             y="222.36411"
             x="190.3679 196.86591 201.8699 204.86691 212.39105 217.39507 219.39305 224.39706 229.40106 234.40506 240.43492 243.43192 245.42992 250.43391">NormalLogPrior</tspan><tspan
             id="tspan38"
             y="234.9641"
             x="190.3679 197.86491 202.86891 204.86691 207.36891 209.36691 213.86691 218.87091 221.89476 223.89276 228.89676 231.39876 236.40277 242.90077 247.90477 250.92891 258.4259 263.4299 265.42792 270.45895 275.46295 280.46695 286.46997 289.49411 291.49213 296.49612">MultivariateNormalLogPrior</tspan><tspan
             id="tspan40"
             y="247.5641"
             x="190.3679 196.37091 198.87291 203.87691 208.88091 213.8849 218.88892 221.39091 226.88991 231.92105 236.92506 241.92906 247.93205 250.95621 252.95421 257.95822">StudentTLogPrior</tspan><tspan
             id="tspan42"
             y="167.2446"
             x="38.773911 44.776909 49.78091 54.784908 61.282909 66.314056 72.812057 77.816055 79.814056 84.314056 89.318062 94.32206 99.35321 104.35721 109.36121 111.35921 115.85921 120.8632 122.86121 124.88635 129.89035 134.89435 139.89836">KnownNoiseLogLikelihood</tspan><tspan
             id="tspan44"
             y="179.8446"
             x="38.773911 45.271912 50.275909 54.775909 59.779911 64.783913 71.281914 76.313057 82.811058 87.815056 89.813057 94.313057 99.317055 104.32106 109.3522 114.35621 119.36021 121.35821 125.85821 130.86221 132.86021 134.88536 139.88936 144.89336 149.89735">UnknownNoiseLogLikelihood</tspan><tspan
             id="tspan46"
             y="192.4446"
             x="38.773911 44.776909 47.278912 52.282909 57.286911 62.290909 67.294907 69.796913 75.295914 80.327057 85.331055 90.33506 95.339058 97.337059 101.83706 106.84106 108.8662 110.8642 115.86821 120.87221 125.87621">StudentTLogLikelihood</tspan><tspan
             id="tspan48"
             y="263.62231"
             x="190.3679 196.86591 201.8699 209.36691 214.37091 219.40205 223.90205 228.90605 233.91006 238.91406 243.91806 248.92206 254.95192 257.94891 259.9469 264.95093">ComposedLogPrior</tspan><tspan
             id="tspan50"
             y="204.095"
             x="38.773911 44.776909 49.276909 54.28091 56.278912 61.282909 66.314056 71.318062 76.32206 81.326057 86.330055 88.328056 92.828056 97.859207 99.857208 101.85521 106.85921 111.8632 116.86721">ScaledLogLikelihood</tspan><tspan
             id="tspan52"
             y="221.1028"
             x="38.773911 44.776909 49.78091 57.277908 64.279907 66.781914 69.283913 74.28791 79.291908 84.295914 89.327057 94.331055 99.33506 104.33906 109.34306 114.34706 116.84906 121.85306 126.88421 131.88821 136.89221 138.89021 143.39021 148.39421 150.39221 152.41736 157.42136 162.42535 167.42935 172.43335">SumOfIndependentLogLikelihoods</tspan><tspan
             id="tspan54"
             y="167.2446"
             x="-81.758087 -75.755089 -70.751091 -63.254089 -56.25209 -53.750092 -47.747089 -42.715942 -37.711941 -32.707943 -29.710941 -24.706942 -20.206942 -14.177086 -11.180086 -8.1830864 -3.1520355">SumOfSquaresError</tspan><tspan
             id="tspan56"
             y="179.8446"
             x="-81.758087 -74.261093 -69.257088 -64.25309 -59.249088 -53.219234 -48.215233 -43.211235 -38.207233 -35.183186 -30.179184 -25.175184 -19.172184 -16.148035 -13.151035 -8.1470356">MeanSquaredError</tspan><tspan
             id="tspan58"
             y="192.4446"
             x="-81.758087 -75.260094 -70.256088 -65.25209 -62.750092 -55.25309 -50.249088 -45.217941 -40.213943 -34.210941 -29.206942 -24.202942 -19.171793 -16.174793 -11.170794 -6.1667933 -0.13664477 2.8603551 5.8573551 10.861355">RootMeanSquaredError</tspan><tspan
             id="tspan60"
             y="209.7641"
             x="-81.758087 -75.755089 -70.751091 -63.254089 -56.25209 -53.750092 -47.747089 -44.723236 -41.726234 -36.722233 -33.698185">SumOfErrors</tspan><tspan
             id="tspan62"
             y="226.7719"
             x="-82.047935 -76.044937 -73.047935 -68.043938 -63.012787 -58.008785 -53.004787 -51.006786 -49.008785 -47.010784 -44.508785 -40.008785 -33.978638 -28.974638 -24.474638 -19.470636 -14.466638 -8.4636374 -5.4397817 -2.4427817 2.5612183">ProbabilityBasedError</tspan><tspan
             id="tspan64"
             y="209.7641"
             x="-217.82094 -211.32294 -206.31894 -201.81894 -199.31694 -194.31293 -189.30893 -184.30493 -179.30093 -177.27579 -172.27179 -169.27478 -163.27179 -158.24063 -153.23663 -148.23264 -143.22864 -138.22464 -135.20049 -133.20248 -128.19849">RectangularBoundaries</tspan><tspan
             id="tspan66"
             y="222.36411"
             x="-217.82094 -211.81793 -208.82094 -203.81694 -198.78578 -193.78178 -188.77779 -186.77979 -184.78178 -182.78378 -180.28178 -175.78178 -169.75163 -164.74763 -160.24763 -155.24364 -150.23964 -144.23663 -139.20549 -134.20149 -129.19749 -124.19349 -119.18949 -116.16534 -114.16734 -109.16334">ProbabilityBasedBoundaries</tspan></text>
</g><path
         id="path70"
         style="fill:none;stroke:#000000;stroke-width:8.0886097;stroke-linecap:butt;stroke-linejoin:miter;stroke-miterlimit:4;stroke-dasharray:none;stroke-opacity:1"
         d="m 2062.23,2831.64 h 797.89 c 14.57,0 26.25,-11.68 26.25,-26.25 v -230.94 c 0,-14.57 -11.68,-26.25 -26.25,-26.25 h -797.89 c -14.53,0 -26.25,11.68 -26.25,26.25 v 230.94 c 0,14.57 11.72,26.25 26.25,26.25 z" /><path
         id="path72"
         style="fill:none;stroke:#000000;stroke-width:8.0886097;stroke-linecap:butt;stroke-linejoin:miter;stroke-miterlimit:4;stroke-dasharray:none;stroke-opacity:1"
         d="m 1637.03,2264.73 h 1648.28 c 14.57,0 26.25,-11.72 26.25,-26.25 V 2007.5 c 0,-14.53 -11.68,-26.25 -26.25,-26.25 H 1637.03 c -14.53,0 -26.25,11.72 -26.25,26.25 v 230.98 c 0,14.53 11.72,26.25 26.25,26.25 z" /><path
         id="path74"
         style="fill:none;stroke:#000000;stroke-width:8.0886097;stroke-linecap:butt;stroke-linejoin:miter;stroke-miterlimit:4;stroke-dasharray:none;stroke-opacity:1"
         d="M 77.9688,1556.05 H 875.859 c 14.571,0 26.25,-11.67 26.25,-26.25 v -230.93 c 0,-14.57 -11.679,-26.25 -26.25,-26.25 H 77.9688 c -14.5274,0 -26.25,11.68 -26.25,26.25 v 230.93 c 0,14.58 11.7226,26.25 26.25,26.25 z" /><path
         id="path76"
         style="fill:none;stroke:#000000;stroke-width:8.0886097;stroke-linecap:butt;stroke-linejoin:miter;stroke-miterlimit:4;stroke-dasharray:none;stroke-opacity:1"
         d="m 4046.48,1556.05 h 797.9 c 14.53,0 26.24,-11.67 26.24,-26.25 v -230.93 c 0,-14.57 -11.71,-26.25 -26.24,-26.25 h -797.9 c -14.53,0 -26.25,11.68 -26.25,26.25 v 230.93 c 0,14.58 11.72,26.25 26.25,26.25 z" /><path
         id="path78"
         style="fill:none;stroke:#000000;stroke-width:5.66929007;stroke-linecap:butt;stroke-linejoin:miter;stroke-miterlimit:4;stroke-dasharray:none;stroke-opacity:1"
         d="m 2461.17,2345.2 -25.94,-38.91 25.94,-38.95 25.98,38.95 z" /><path
         id="path80"
         style="fill:none;stroke:#000000;stroke-width:5.66929007;stroke-linecap:butt;stroke-linejoin:miter;stroke-miterlimit:4;stroke-dasharray:none;stroke-opacity:1"
         d="M 2461.17,2548.2 V 2342.03" /><path
         id="path82"
         style="fill:none;stroke:#000000;stroke-width:5.66929007;stroke-linecap:butt;stroke-linejoin:miter;stroke-miterlimit:4;stroke-dasharray:none;stroke-opacity:1"
         d="m 1894.26,1636.52 -25.94,-38.9 25.94,-38.95 25.94,38.95 z" /><path
         id="path84"
         style="fill:none;stroke:#000000;stroke-width:5.66929007;stroke-linecap:butt;stroke-linejoin:miter;stroke-miterlimit:4;stroke-dasharray:none;stroke-opacity:1"
         d="M 1894.26,1981.25 V 1633.36" /><path
         id="path86"
         style="fill:none;stroke:#000000;stroke-width:5.66929007;stroke-linecap:butt;stroke-linejoin:miter;stroke-miterlimit:4;stroke-dasharray:none;stroke-opacity:1"
         d="m 3028.12,1636.52 -25.97,-38.9 25.97,-38.95 25.94,38.95 z" /><path
         id="path88"
         style="fill:none;stroke:#000000;stroke-width:5.66929007;stroke-linecap:butt;stroke-linejoin:miter;stroke-miterlimit:4;stroke-dasharray:none;stroke-opacity:1"
         d="M 3028.12,1981.25 V 1633.36" /><path
         id="path90"
         style="fill:none;stroke:#000000;stroke-width:5.66929007;stroke-linecap:butt;stroke-linejoin:miter;stroke-miterlimit:4;stroke-dasharray:none;stroke-opacity:1"
         d="m 1530.31,2123.01 38.95,-25.98 38.9,25.98 -38.9,25.94 z" /><path
         id="path92"
         style="fill:none;stroke:#000000;stroke-width:5.66929007;stroke-linecap:butt;stroke-linejoin:miter;stroke-miterlimit:4;stroke-dasharray:none;stroke-opacity:1"
         d="M 902.109,2123.01 H 1533.48" /><path
         id="path94"
         style="fill:none;stroke:#000000;stroke-width:8.0886097;stroke-linecap:butt;stroke-linejoin:miter;stroke-miterlimit:4;stroke-dasharray:none;stroke-opacity:1"
         d="m 503.16,2293.09 h 372.699 c 14.571,0 26.25,-11.72 26.25,-26.25 v -89.26 c 0,-14.53 -11.679,-26.25 -26.25,-26.25 H 503.16 c -14.531,0 -26.25,11.72 -26.25,26.25 v 89.26 c 0,14.53 11.719,26.25 26.25,26.25 z" /><g
         transform="scale(10)"
         id="g96"><text
           id="text100"
           style="font-variant:normal;font-weight:normal;font-size:9px;font-family:ArialMT;-inkscape-font-specification:ArialMT;writing-mode:lr-tb;fill:#000000;fill-opacity:1;fill-rule:nonzero;stroke:none"
           transform="matrix(1,0,0,-1,56.0305,199.209)"><tspan
             id="tspan98"
             y="0"
             x="0 4.5 9.5039997 11.502 16.506001 21.51">values</tspan></text>
</g><path
         id="path102"
         style="fill:none;stroke:#000000;stroke-width:8.0886097;stroke-linecap:butt;stroke-linejoin:miter;stroke-miterlimit:4;stroke-dasharray:none;stroke-opacity:1"
         d="m 503.16,2094.65 h 372.699 c 14.571,0 26.25,-11.72 26.25,-26.25 v -89.22 c 0,-14.57 -11.679,-26.25 -26.25,-26.25 H 503.16 c -14.531,0 -26.25,11.68 -26.25,26.25 v 89.22 c 0,14.53 11.719,26.25 26.25,26.25 z" /><path
         id="path104"
         style="fill:none;stroke:#000000;stroke-width:5.66929007;stroke-linecap:butt;stroke-linejoin:miter;stroke-miterlimit:4;stroke-dasharray:17.0079, 17.0079;stroke-dashoffset:0;stroke-opacity:1"
         d="m 2886.37,2689.92 h 566.95" /><path
         id="path106"
         style="fill:none;stroke:#000000;stroke-width:5.66929007;stroke-linecap:butt;stroke-linejoin:miter;stroke-miterlimit:4;stroke-dasharray:none;stroke-opacity:1"
         d="m 3442.73,2663.98 38.91,25.94 -38.91,25.94" /><g
         transform="scale(10)"
         id="g108"><text
           id="text112"
           style="font-variant:normal;font-weight:normal;font-size:9px;font-family:ArialMT;-inkscape-font-specification:ArialMT;writing-mode:lr-tb;fill:#000000;fill-opacity:1;fill-rule:nonzero;stroke:none"
           transform="matrix(1,0,0,-1,137.778,138.598)"><tspan
             id="tspan110"
             y="0"
             x="0 6.0029998 9 14.004 19.035149 21.033148 26.037148 33.534149 39.564297 42.561298 45.558296 50.562298 53.586151 61.083153 66.087151 71.091156 75.591156 80.6222 83.619202">ProblemErrorMeasure</tspan></text>
</g><path
         id="path114"
         style="fill:none;stroke:#000000;stroke-width:8.0886097;stroke-linecap:butt;stroke-linejoin:miter;stroke-miterlimit:4;stroke-dasharray:none;stroke-opacity:1"
         d="m 1353.55,1556.05 h 939.65 c 14.53,0 26.25,-11.67 26.25,-26.25 v -230.93 c 0,-14.57 -11.72,-26.25 -26.25,-26.25 h -939.65 c -14.53,0 -26.25,11.68 -26.25,26.25 v 230.93 c 0,14.58 11.72,26.25 26.25,26.25 z" /><g
         transform="scale(10)"
         id="g116"><text
           id="text120"
           style="font-variant:normal;font-weight:normal;font-size:9px;font-family:ArialMT;-inkscape-font-specification:ArialMT;writing-mode:lr-tb;fill:#000000;fill-opacity:1;fill-rule:nonzero;stroke:none"
           transform="matrix(1,0,0,-1,265.082,138.598)"><tspan
             id="tspan118"
             y="0"
             x="0 6.0029998 9 14.004 19.035149 21.033148 26.037148 33.534149 38.538147 43.569298 48.573296 53.577297 55.575298 60.075298 65.0793 67.077293 69.102448 74.106445 79.110443 84.114449">ProblemLogLikelihood</tspan></text>
</g><path
         id="path122"
         style="fill:none;stroke:#000000;stroke-width:8.0886097;stroke-linecap:butt;stroke-linejoin:miter;stroke-miterlimit:4;stroke-dasharray:none;stroke-opacity:1"
         d="m 2629.18,1556.05 h 939.61 c 14.53,0 26.25,-11.67 26.25,-26.25 v -230.93 c 0,-14.57 -11.72,-26.25 -26.25,-26.25 h -939.61 c -14.57,0 -26.25,11.68 -26.25,26.25 v 230.93 c 0,14.58 11.68,26.25 26.25,26.25 z" /><g
         transform="scale(10)"
         id="g124"><text
           id="text128"
           style="font-variant:normal;font-weight:normal;font-size:9px;font-family:ArialMT;-inkscape-font-specification:ArialMT;writing-mode:lr-tb;fill:#000000;fill-opacity:1;fill-rule:nonzero;stroke:none"
           transform="matrix(1,0,0,-1,427.51,81.9055)"><tspan
             id="tspan126"
             y="0"
             x="0 5.0040002 10.008 15.012 21.014999 24.038855 26.036856 31.040855">LogPrior</tspan></text>
</g><path
         id="path130"
         style="fill:none;stroke:#000000;stroke-width:8.0886097;stroke-linecap:butt;stroke-linejoin:miter;stroke-miterlimit:4;stroke-dasharray:none;stroke-opacity:1"
         d="m 4046.48,989.141 h 797.9 c 14.53,0 26.24,-11.719 26.24,-26.25 V 731.91 c 0,-14.531 -11.71,-26.25 -26.24,-26.25 h -797.9 c -14.53,0 -26.25,11.719 -26.25,26.25 v 230.981 c 0,14.531 11.72,26.25 26.25,26.25 z" /><g
         transform="scale(10)"
         id="g132"><text
           id="text136"
           style="font-variant:normal;font-weight:normal;font-size:9px;font-family:ArialMT;-inkscape-font-specification:ArialMT;writing-mode:lr-tb;fill:#000000;fill-opacity:1;fill-rule:nonzero;stroke:none"
           transform="matrix(1,0,0,-1,24.9027,81.9055)"><tspan
             id="tspan134"
             y="0"
             x="0 6.0029998 11.007 16.011 21.014999 26.046148 31.050148 34.04715 36.045147 41.049149">Boundaries</tspan></text>
</g><path
         id="path138"
         style="fill:none;stroke:#000000;stroke-width:8.0886097;stroke-linecap:butt;stroke-linejoin:miter;stroke-miterlimit:4;stroke-dasharray:none;stroke-opacity:1"
         d="M 77.9688,989.141 H 875.859 c 14.571,0 26.25,-11.719 26.25,-26.25 V 731.91 c 0,-14.531 -11.679,-26.25 -26.25,-26.25 H 77.9688 c -14.5274,0 -26.25,11.719 -26.25,26.25 v 230.981 c 0,14.531 11.7226,26.25 26.25,26.25 z" /><path
         id="path140"
         style="fill:none;stroke:#000000;stroke-width:5.66929007;stroke-linecap:butt;stroke-linejoin:miter;stroke-miterlimit:4;stroke-dasharray:none;stroke-opacity:1"
         d="m 3938.71,1440.12 73.01,-25.78 -73.01,-25.79 c -0.16,17.19 -0.08,34.38 0,51.57 z" /><path
         id="path142"
         style="fill:none;stroke:#000000;stroke-width:5.66929007;stroke-linecap:butt;stroke-linejoin:miter;stroke-miterlimit:4;stroke-dasharray:none;stroke-opacity:1"
         d="m 3591.8,1414.34 h 345.74" /><path
         id="path144"
         style="fill:none;stroke:#000000;stroke-width:5.66929007;stroke-linecap:butt;stroke-linejoin:miter;stroke-miterlimit:4;stroke-dasharray:none;stroke-opacity:1"
         d="m 980.43,1440.12 -73.008,-25.78 73.008,-25.79 c 0.16,17.19 0.082,34.38 0,51.57 z" /><path
         id="path146"
         style="fill:none;stroke:#000000;stroke-width:5.66929007;stroke-linecap:butt;stroke-linejoin:miter;stroke-miterlimit:4;stroke-dasharray:none;stroke-opacity:1"
         d="M 1327.3,1414.34 H 981.602" /><path
         id="path148"
         style="fill:none;stroke:#000000;stroke-width:5.66929007;stroke-linecap:butt;stroke-linejoin:miter;stroke-miterlimit:4;stroke-dasharray:none;stroke-opacity:1"
         d="m 4471.21,1194.3 -25.78,73 -25.78,-73 c 17.19,-0.16 34.37,-0.08 51.56,0 z" /><path
         id="path150"
         style="fill:none;stroke:#000000;stroke-width:5.66929007;stroke-linecap:butt;stroke-linejoin:miter;stroke-miterlimit:4;stroke-dasharray:none;stroke-opacity:1"
         d="M 4445.43,989.141 V 1193.12" /><path
         id="path152"
         style="fill:none;stroke:#000000;stroke-width:8.0886097;stroke-linecap:butt;stroke-linejoin:miter;stroke-miterlimit:4;stroke-dasharray:none;stroke-opacity:1"
         d="m 4046.48,2123.01 h 797.9 c 14.53,0 26.24,-11.72 26.24,-26.25 v -230.98 c 0,-14.53 -11.71,-26.25 -26.24,-26.25 h -797.9 c -14.53,0 -26.25,11.72 -26.25,26.25 v 230.98 c 0,14.53 11.72,26.25 26.25,26.25 z" /><path
         id="path154"
         style="fill:none;stroke:#000000;stroke-width:5.66929007;stroke-linecap:butt;stroke-linejoin:miter;stroke-miterlimit:4;stroke-dasharray:none;stroke-opacity:1"
         d="m 4471.21,1637.62 -25.78,-73.05 -25.78,73.05 c 17.19,0.11 34.37,0.04 51.56,0 z" /><path
         id="path156"
         style="fill:none;stroke:#000000;stroke-width:5.66929007;stroke-linecap:butt;stroke-linejoin:miter;stroke-miterlimit:4;stroke-dasharray:none;stroke-opacity:1"
         d="M 4445.43,1839.53 V 1638.79" /><path
         id="path158"
         style="fill:none;stroke:#000000;stroke-width:5.66929007;stroke-linecap:butt;stroke-linejoin:miter;stroke-miterlimit:4;stroke-dasharray:none;stroke-opacity:1"
         d="m 3939.77,1981.25 38.9,-25.94 38.95,25.94 -38.95,25.98 z" /><path
         id="path160"
         style="fill:none;stroke:#000000;stroke-width:5.66929007;stroke-linecap:butt;stroke-linejoin:miter;stroke-miterlimit:4;stroke-dasharray:none;stroke-opacity:1"
         d="m 3453.32,1556.05 c 0,283.48 283.44,425.2 489.61,425.2" /><path
         id="path162"
         style="fill:none;stroke:#000000;stroke-width:5.66929007;stroke-linecap:butt;stroke-linejoin:miter;stroke-miterlimit:4;stroke-dasharray:none;stroke-opacity:1"
         d="m 4951.09,1981.25 -38.9,-25.94 -38.95,25.94 38.95,25.98 z" /><path
         id="path164"
         style="fill:none;stroke:#000000;stroke-width:5.66929007;stroke-linecap:butt;stroke-linejoin:miter;stroke-miterlimit:4;stroke-dasharray:none;stroke-opacity:1"
         d="m 4870.62,847.379 c 425.2,0 425.2,1133.871 77.31,1133.871" /><path
         id="path166"
         style="fill:none;stroke:#000000;stroke-width:5.66929007;stroke-linecap:butt;stroke-linejoin:miter;stroke-miterlimit:4;stroke-dasharray:none;stroke-opacity:1"
         d="M 134.691,53.7109 95.7813,27.7305 56.8398,53.7109 95.7813,79.6484 Z" /><path
         id="path168"
         style="fill:none;stroke:#000000;stroke-width:5.66929007;stroke-linecap:butt;stroke-linejoin:miter;stroke-miterlimit:4;stroke-dasharray:none;stroke-opacity:1"
         d="M 762.891,53.7109 H 131.52" /><g
         transform="scale(10)"
         id="g170"><text
           id="text174"
           style="font-variant:normal;font-weight:normal;font-size:8px;font-family:ArialMT;-inkscape-font-specification:ArialMT;writing-mode:lr-tb;fill:#000000;fill-opacity:1;fill-rule:nonzero;stroke:none"
           transform="matrix(1,0,0,-1,19.3465,8.20469)"><tspan
             id="tspan172"
             y="0"
             x="0 1.776 6.224 10.672 12.448 16.448 20.896 23.120001 27.568001 31.568001 33.792 38.240002 44.039829 48.487827 52.935829 55.599827 59.599827 64.047829 65.847656 113.37574 115.15173 119.59974 124.04774 125.82374 129.82373 134.27174 136.49574 140.94374 144.94374 147.16774 148.94374 153.39174 157.86357 162.31157 164.97557 166.75157 168.97557 173.42357 177.87157 181.87157">indicates ownershipindicates inheritance</tspan></text>
</g><path
         id="path176"
         style="fill:none;stroke:#000000;stroke-width:5.66929007;stroke-linecap:butt;stroke-linejoin:miter;stroke-miterlimit:4;stroke-dasharray:none;stroke-opacity:1"
         d="m 1269.45,79.4883 -73,-25.7774 73,-25.7812 c 0.16,17.1914 0.04,34.3711 0,51.5586 z" /><path
         id="path178"
         style="fill:none;stroke:#000000;stroke-width:5.66929007;stroke-linecap:butt;stroke-linejoin:miter;stroke-miterlimit:4;stroke-dasharray:none;stroke-opacity:1"
         d="M 1894.26,53.7109 H 1270.62" /></g></g></svg>