<?xml version="1.0" encoding="UTF-8" standalone="no"?>
<!-- Created with Inkscape (http://www.inkscape.org/) -->

<svg
   xmlns:dc="http://purl.org/dc/elements/1.1/"
   xmlns:cc="http://creativecommons.org/ns#"
   xmlns:rdf="http://www.w3.org/1999/02/22-rdf-syntax-ns#"
   xmlns:svg="http://www.w3.org/2000/svg"
   xmlns="http://www.w3.org/2000/svg"
   xmlns:sodipodi="http://sodipodi.sourceforge.net/DTD/sodipodi-0.dtd"
   xmlns:inkscape="http://www.inkscape.org/namespaces/inkscape"
   id="svg3239"
   version="1.1"
   inkscape:version="0.92.3 (2405546, 2018-03-11)"
   width="942.44696"
   height="440.97946"
   viewBox="0 0 1979.1386 926.05685"
   sodipodi:docname="lake.svg">
  <metadata
     id="metadata3245">
    <rdf:RDF>
      <cc:Work
         rdf:about="">
        <dc:format>image/svg+xml</dc:format>
        <dc:type
           rdf:resource="http://purl.org/dc/dcmitype/StillImage" />
        <dc:title></dc:title>
      </cc:Work>
    </rdf:RDF>
  </metadata>
  <defs
     id="defs3243" />
  <sodipodi:namedview
     pagecolor="#ffffff"
     bordercolor="#666666"
     borderopacity="1"
     objecttolerance="10"
     gridtolerance="10"
     guidetolerance="10"
     inkscape:pageopacity="0"
     inkscape:pageshadow="2"
     inkscape:window-width="3840"
     inkscape:window-height="2049"
     id="namedview3241"
     showgrid="false"
     inkscape:zoom="1.0222187"
     inkscape:cx="969.41033"
     inkscape:cy="-46.203459"
     inkscape:window-x="0"
     inkscape:window-y="55"
     inkscape:window-maximized="1"
     inkscape:current-layer="svg3239"
     fit-margin-top="0"
     fit-margin-left="0"
     fit-margin-right="0"
     fit-margin-bottom="0"
     scale-x="2.1" />
  <path
     style="fill:#3e94aa;fill-opacity:1"
     d="m 976.62762,561.63542 c -33.01577,-9.12295 -40.45449,-13.676 -72.20662,-44.19579 -22.6967,-21.81582 -24.82194,-23.02375 -42.89219,-24.3785 -14.97955,-1.12303 -25.61931,1.05772 -50.16106,10.28109 -57.61938,21.65469 -86.32323,12.74 -86.32323,-26.80982 0,-23.42399 12.05485,-36.15342 51.16945,-54.03283 20.43368,-9.34028 20.72957,-8.95243 -15.63512,-20.49429 -14.0716,-4.46622 -28.463,-10.60026 -31.98091,-13.63121 -15.51889,-13.37078 -1.08794,-42.5445 31.5496,-63.78088 35.8064,-23.29829 67.18446,-26.46243 109.56713,-11.04869 l 26.69615,9.70888 56.08945,-6.13312 c 53.92133,-5.89606 68.22513,-5.35875 76.07923,2.8579 4.665,4.88036 -1.8276,15.11368 -13.7442,21.66275 -4.5576,2.50479 -7.5877,6.05445 -6.7336,7.88817 0.8542,1.83371 20.3463,3.46328 43.3158,3.62128 22.9695,0.15808 66.0682,1.59551 95.7749,3.19447 50.5183,2.71915 55.8133,3.71091 81.8553,15.33163 39.1109,17.45251 50.0372,30.71324 44.0578,53.47102 -3.1697,12.06428 -3.161,12.05903 -46.2631,27.81711 -37.8149,13.8251 -41.8249,17.75679 -59.3443,58.18587 -14.984,34.57811 -28.2905,42.07758 -87.1421,49.11269 -29.6263,3.5415 -92.85087,4.37795 -103.72838,1.37227 z"
     id="path3255"
     inkscape:connector-curvature="0" />
  <path
     style="fill:#3ea667;fill-opacity:1"
     d="m 808.47466,265.56113 c 0.006,-2.59307 4.48283,-39.33805 9.94962,-81.6555 5.46678,-42.31744 9.9396,-77.53621 9.9396,-78.26395 0,-0.72774 1.71174,-1.32315 3.80388,-1.32315 2.45272,0 7.17778,16.41185 13.30241,46.20401 5.22418,25.41221 9.90863,46.91124 10.40985,47.7756 2.43895,4.2059 4.95822,-9.35858 18.23396,-98.17672 7.87189,-52.664959 15.4484,-97.2856305 16.8367,-99.15706151 3.65588,-4.92809999 7.08255,7.77257901 18.21774,67.52247751 11.9834,64.301284 35.74809,197.151544 35.74809,199.840274 0,1.07181 -30.70167,1.94872 -68.22592,1.94872 -52.69092,0 -68.22366,-1.07352 -68.21593,-4.7147 z"
     id="path3257"
     inkscape:connector-curvature="0" />
  <path
     style="fill:#3ea667;fill-opacity:1"
     d="m 1000.3501,291.52502 c -26.94405,-11.62748 -32.68814,-16.21017 -32.7105,-26.09659 -0.0337,-14.94049 20.88182,-142.49117 22.87494,-139.49933 1.06469,1.59822 8.56136,38.54895 16.65926,82.11274 8.0979,43.5638 15.3983,82.17717 16.2231,85.80748 1.8689,8.22559 1.2572,8.1639 -23.0468,-2.3243 z"
     id="path3259"
     inkscape:connector-curvature="0" />
  <path
     style="fill:#6794aa;fill-opacity:1"
     d="m 254.28223,564.21736 c -33.01577,-9.12295 -40.45449,-13.676 -72.20662,-44.19579 -22.6967,-21.81582 -24.82194,-23.02375 -42.89219,-24.3785 -14.97955,-1.12303 -25.61931,1.05772 -50.161063,10.28109 -57.61938,21.65469 -86.3232296,12.74 -86.3232296,-26.80982 0,-23.42399 12.0548596,-36.15342 51.1694496,-54.03283 20.43369,-9.34028 20.72958,-8.95243 -15.63511,-20.49429 C 24.161867,400.121 9.7704674,393.98696 6.2525574,390.95601 -9.2663326,377.58523 5.1646174,348.41151 37.802157,327.17513 73.608547,303.87684 104.98661,300.7127 147.36928,316.12644 l 26.69615,9.70888 56.08945,-6.13312 c 53.92131,-5.89606 68.22509,-5.35875 76.07921,2.8579 4.66503,4.88036 -1.82761,15.11368 -13.74415,21.66275 -4.55763,2.50479 -7.58775,6.05445 -6.73359,7.88817 0.85417,1.83371 20.34626,3.46328 43.31576,3.62128 22.96951,0.15808 66.06823,1.59551 95.77494,3.19447 50.51831,2.71915 55.81327,3.71091 81.85522,15.33163 39.11093,17.45251 50.03724,30.71324 44.05788,53.47102 -3.16974,12.06428 -3.16102,12.05903 -46.26315,27.81711 -37.81487,13.8251 -41.82485,17.75679 -59.3443,58.18587 -14.984,34.57811 -28.29053,42.07758 -87.14205,49.11269 -29.62631,3.5415 -92.85091,4.37795 -103.72842,1.37227 z"
     id="path3255-3"
     inkscape:connector-curvature="0" />
  <path
     style="fill:#3ea667;fill-opacity:1"
     d="m 326.78228,335.6433 c 0.006,-2.59307 4.48283,-39.33805 9.94962,-81.6555 5.46678,-42.31744 9.9396,-77.53621 9.9396,-78.26395 0,-0.72774 1.71174,-1.32315 3.80388,-1.32315 2.45272,0 7.17778,16.41185 13.30241,46.20401 5.22418,25.41221 9.90863,46.91124 10.40985,47.7756 2.43895,4.2059 4.95822,-9.35858 18.23396,-98.17672 7.87189,-52.66497 15.4484,-97.285636 16.8367,-99.157066 3.65588,-4.9281 7.08255,7.77258 18.21774,67.522476 11.9834,64.30129 35.74809,197.15155 35.74809,199.84028 0,1.07181 -30.70167,1.94872 -68.22592,1.94872 -52.69092,0 -68.22366,-1.07352 -68.21593,-4.7147 z"
     id="path3257-6"
     inkscape:connector-curvature="0" />
  <path
     style="fill:#3ea667;fill-opacity:1"
     d="m 518.6577,361.60719 c -26.94403,-11.62748 -32.68812,-16.21017 -32.71048,-26.09659 -0.0337,-14.94049 20.88182,-142.49117 22.87494,-139.49933 1.06469,1.59822 8.56136,38.54895 16.65925,82.11274 8.0979,43.5638 15.39828,82.17717 16.2231,85.80748 1.86888,8.22559 1.25717,8.1639 -23.04681,-2.3243 z"
     id="path3259-7"
     inkscape:connector-curvature="0" />
  <path
     style="fill:#3e94b6;fill-opacity:1"
     d="m 1495.6996,885.08803 c -33.0158,-9.12295 -40.4545,-13.676 -72.2066,-44.19579 -22.6967,-21.81582 -24.822,-23.02375 -42.8922,-24.3785 -14.9796,-1.12303 -25.6193,1.05772 -50.1611,10.28109 -57.6194,21.65469 -86.3232,12.74 -86.3232,-26.80982 0,-23.42399 12.0548,-36.15342 51.1694,-54.03283 20.4337,-9.34028 20.7296,-8.95243 -15.6351,-20.49429 -14.0716,-4.46622 -28.463,-10.60026 -31.9809,-13.63121 -15.5189,-13.37078 -1.0879,-42.5445 31.5496,-63.78088 35.8064,-23.29829 67.1845,-26.46243 109.5671,-11.04869 l 26.6962,9.70888 56.0894,-6.13312 c 53.9213,-5.89606 68.2251,-5.35875 76.0792,2.8579 4.6651,4.88036 -1.8276,15.11368 -13.7441,21.66275 -4.5576,2.50479 -7.5878,6.05445 -6.7336,7.88817 0.8542,1.83371 20.3463,3.46328 43.3158,3.62128 22.9695,0.15808 66.0682,1.59551 95.7749,3.19447 50.5184,2.71915 55.8133,3.71091 81.8553,15.33163 39.1109,17.45251 50.0372,30.71324 44.0579,53.47102 -3.1698,12.06428 -3.1611,12.05903 -46.2632,27.81711 -37.8149,13.8251 -41.8248,17.75679 -59.3444,58.18587 -14.984,34.57811 -28.2905,42.07758 -87.142,49.11269 -29.6263,3.5415 -92.8509,4.37795 -103.7284,1.37227 z"
     id="path3255-5"
     inkscape:connector-curvature="0" />
  <path
     style="fill:#6194aa;fill-opacity:1"
     d="m 537.0006,924.2186 c -33.01577,-9.12295 -40.45449,-13.676 -72.20662,-44.19579 -22.6967,-21.81582 -24.82194,-23.02375 -42.89219,-24.3785 -14.97955,-1.12303 -25.61931,1.05772 -50.16106,10.28109 -57.61938,21.65469 -86.32323,12.74 -86.32323,-26.80982 0,-23.42399 12.05485,-36.15342 51.16945,-54.03283 20.43368,-9.34028 20.72958,-8.95243 -15.63511,-20.49429 -14.07161,-4.46622 -28.46301,-10.60026 -31.98091,-13.63121 -15.51889,-13.37078 -1.08795,-42.5445 31.5496,-63.78088 35.80639,-23.29829 67.18445,-26.46243 109.56712,-11.04869 l 26.69615,9.70888 56.08945,-6.13312 c 53.92131,-5.89606 68.22509,-5.35875 76.07921,2.8579 4.66503,4.88036 -1.82761,15.11368 -13.74415,21.66275 -4.55763,2.50479 -7.58775,6.05445 -6.73359,7.88817 0.85417,1.83371 20.34626,3.46328 43.31576,3.62128 22.96951,0.15808 66.06823,1.59551 95.77494,3.19447 50.51831,2.71915 55.81327,3.71091 81.85522,15.33163 39.1109,17.45251 50.0372,30.71324 44.0579,53.47102 -3.1698,12.06428 -3.161,12.05903 -46.2632,27.81711 -37.81484,13.8251 -41.82482,17.75679 -59.34427,58.18587 -14.984,34.57811 -28.29053,42.07758 -87.14205,49.11269 -29.62631,3.5415 -92.85091,4.37795 -103.72842,1.37227 z"
     id="path3255-6"
     inkscape:connector-curvature="0" />
  <path
     style="fill:#3e88aa;fill-opacity:1"
     d="m 1679.6132,527.04327 c -33.0157,-9.1229 -40.4544,-13.676 -72.2066,-44.19575 -22.6967,-21.81582 -24.8219,-23.02375 -42.8922,-24.3785 -14.9795,-1.12303 -25.6193,1.05772 -50.161,10.28109 -57.6194,21.65469 -86.3232,12.74 -86.3232,-26.80982 0,-23.42399 12.0548,-36.15342 51.1694,-54.03283 20.4337,-9.34028 20.7296,-8.95243 -15.6351,-20.49429 -14.0716,-4.46622 -28.463,-10.60026 -31.9809,-13.63121 -15.5189,-13.37078 -1.088,-42.5445 31.5496,-63.78088 35.8064,-23.29829 67.1844,-26.46243 109.5671,-11.04869 l 26.6962,9.70888 56.0894,-6.13312 c 53.9214,-5.89606 68.2252,-5.35875 76.0793,2.8579 4.665,4.88036 -1.8276,15.11368 -13.7442,21.66275 -4.5576,2.50479 -7.5877,6.05445 -6.7336,7.88817 0.8542,1.83371 20.3463,3.46328 43.3158,3.62128 22.9695,0.15808 66.0682,1.59551 95.7749,3.19447 50.5184,2.71915 55.8133,3.71091 81.8553,15.33163 39.1109,17.45251 50.0372,30.71324 44.0578,53.47102 -3.1697,12.06428 -3.161,12.05903 -46.2631,27.81711 -37.8149,13.8251 -41.8249,17.75679 -59.3443,58.18587 -14.984,34.57812 -28.2905,42.07762 -87.1421,49.11272 -29.6263,3.5415 -92.851,4.3779 -103.7285,1.3722 z"
     id="path3255-1"
     inkscape:connector-curvature="0" />
  <path
     style="fill:#3ea667;fill-opacity:1"
     d="m 1752.1134,298.46925 c 0.01,-2.59307 4.4828,-39.33805 9.9496,-81.6555 5.4668,-42.31744 9.9396,-77.53621 9.9396,-78.26395 0,-0.72774 1.7117,-1.32315 3.8039,-1.32315 2.4527,0 7.1778,16.41185 13.3024,46.20401 5.2242,25.41221 9.9086,46.91124 10.4098,47.7756 2.439,4.2059 4.9583,-9.35858 18.234,-98.17672 7.8719,-52.66496 15.4484,-97.28563 16.8367,-99.15706 3.6559,-4.9281 7.0825,7.77258 18.2177,67.52248 11.9834,64.30128 35.7481,197.15154 35.7481,199.84027 0,1.07181 -30.7016,1.94872 -68.2259,1.94872 -52.6909,0 -68.2237,-1.07352 -68.2159,-4.7147 z"
     id="path3257-27"
     inkscape:connector-curvature="0" />
  <path
     style="fill:#3ea667;fill-opacity:1"
     d="m 1943.9888,324.43314 c -26.944,-11.62748 -32.6881,-16.21017 -32.7105,-26.09659 -0.034,-14.94049 20.8818,-142.49117 22.875,-139.49933 1.0646,1.59822 8.5613,38.54895 16.6592,82.11274 8.0979,43.5638 15.3983,82.17717 16.2231,85.80748 1.8689,8.22559 1.2572,8.1639 -23.0468,-2.3243 z"
     id="path3259-0"
     inkscape:connector-curvature="0" />
  <path
     style="fill:#3ea667;fill-opacity:1"
     d="m 932.81732,910.23282 c 0.006,-2.59307 4.48283,-39.33805 9.94962,-81.6555 5.46678,-42.31744 9.9396,-77.53621 9.9396,-78.26395 0,-0.72774 1.71174,-1.32315 3.80388,-1.32315 2.45272,0 7.17778,16.41185 13.30241,46.20401 5.22418,25.41221 9.90863,46.91124 10.40985,47.7756 2.43895,4.2059 4.95822,-9.35858 18.23396,-98.17672 7.87186,-52.66496 15.44836,-97.28563 16.83666,-99.15706 3.6559,-4.9281 7.0826,7.77258 18.2178,67.52248 11.9834,64.30128 35.7481,197.15154 35.7481,199.84027 0,1.07181 -30.7017,1.94872 -68.226,1.94872 -52.69087,0 -68.22361,-1.07352 -68.21588,-4.7147 z"
     id="path3257-9"
     inkscape:connector-curvature="0" />
  <path
     style="fill:#3ea667;fill-opacity:1"
     d="m 1367.5008,616.89799 c -26.944,-11.62748 -32.6881,-16.21017 -32.7105,-26.09659 -0.034,-14.94049 20.8819,-142.49117 22.875,-139.49933 1.0647,1.59822 8.5613,38.54895 16.6592,82.11274 8.0979,43.5638 15.3983,82.17717 16.2231,85.80748 1.8689,8.22559 1.2572,8.1639 -23.0468,-2.3243 z"
     id="path3259-3"
     inkscape:connector-curvature="0" />
  <path
     style="fill:#3ea667;fill-opacity:1"
     d="m 1955.4377,859.50753 c -26.944,-11.62748 -32.6881,-16.21017 -32.7105,-26.09659 -0.034,-14.94049 20.8818,-142.49118 22.875,-139.49934 1.0646,1.59822 8.5613,38.54895 16.6592,82.11274 8.0979,43.56381 15.3983,82.17718 16.2231,85.80749 1.8689,8.22559 1.2572,8.1639 -23.0468,-2.3243 z"
     id="path3259-6"
     inkscape:connector-curvature="0" />
  <path
     style="fill:#3ea667;fill-opacity:1"
     d="m 88.575287,899.47192 c 0.01,-2.59307 4.4828,-39.33805 9.9496,-81.6555 5.466803,-42.31744 9.939603,-77.53621 9.939603,-78.26395 0,-0.72774 1.7117,-1.32315 3.8039,-1.32315 2.4527,0 7.1778,16.41185 13.3024,46.20401 5.2242,25.41221 9.9086,46.91124 10.4098,47.7756 2.439,4.2059 4.9583,-9.35858 18.234,-98.17672 7.8719,-52.66496 15.4484,-97.28563 16.8367,-99.15706 3.6559,-4.9281 7.0825,7.77258 18.21769,67.52248 11.9834,64.30128 35.7481,197.15154 35.7481,199.84027 0,1.07181 -30.7016,1.94872 -68.22589,1.94872 -52.6909,0 -68.223703,-1.07352 -68.215903,-4.7147 z"
     id="path3257-27-2"
     inkscape:connector-curvature="0" />
</svg>
