<?xml version="1.0" encoding="utf-8"?>
<!-- Generator: Adobe Illustrator 19.2.0, SVG Export Plug-In . SVG Version: 6.00 Build 0)  -->
<svg version="1.1" id="Layer_1" xmlns="http://www.w3.org/2000/svg" xmlns:xlink="http://www.w3.org/1999/xlink" x="0px" y="0px"
	 viewBox="0 0 1920 1080" style="enable-background:new 0 0 1920 1080;" xml:space="preserve">
<style type="text/css">
	.st0{fill:#F8C09D;}
	.st1{fill:#065082;}
	.st2{fill:#F2F2F2;}
	.st3{fill:#1561A0;}
	.st4{fill:#22B573;}
	.st5{fill:#1B965B;}
	.st6{fill:#F6AE8D;}
	.st7{fill:#333333;}
	.st8{fill:#EF937E;}
	.st9{fill:none;stroke:#EF937E;stroke-width:5;stroke-linecap:round;stroke-miterlimit:10;}
</style>
<path class="st0" d="M849.1,555.5L849.1,555.5c6.7,7.7,18.3,8.5,26,1.8l74.9-65c7.7-6.7,8.5-18.3,1.8-26v0c-6.7-7.7-18.3-8.5-26-1.8
	c0,0-49.9,43.3-74.9,65C843.3,536.1,842.4,547.8,849.1,555.5z"/>
<path class="st0" d="M849,531.2L849,531.2c-8,6.3-9.5,17.8-3.2,25.9l84.3,108.4c6.3,8,17.8,9.5,25.9,3.2h0c8-6.3,9.5-17.8,3.2-25.9
	l-84.3-108.4C868.7,526.4,857.1,524.9,849,531.2z"/>
<path class="st0" d="M1102.2,265.7L1102.2,265.7c-10-1.9-19.7,4.6-21.6,14.7l-18.6,97.4c-1.9,10,4.6,19.7,14.7,21.6l0,0
	c10,1.9,19.7-4.6,21.6-14.7c0,0,12.4-64.9,18.7-97.4C1118.8,277.3,1112.3,267.6,1102.2,265.7z"/>
<path class="st0" d="M1106.8,297.4L1106.8,297.4c9.2-4.4,13-15.5,8.6-24.7l-59.9-123.6c-4.4-9.2-15.5-13-24.7-8.6l0,0
	c-9.2,4.4-13,15.5-8.6,24.7l59.9,123.6C1086.6,298,1097.7,301.9,1106.8,297.4z"/>
<g>
	<path class="st0" d="M1046,152.6l10.4-4.6l-14.4-32.5c-1.3-2.9-4.6-4.2-7.5-2.9l0,0c-2.9,1.3-4.2,4.6-2.9,7.5L1046,152.6z"/>
	<path class="st0" d="M1035.1,157.3l10.2-5l-18.7-38.6c-1.4-2.8-4.8-4-7.6-2.6v0c-2.8,1.4-4,4.8-2.6,7.6L1035.1,157.3z"/>
	<path class="st0" d="M1024,158.1l9.6-6l-22.7-36.4c-1.7-2.7-5.2-3.5-7.8-1.8v0c-2.7,1.7-3.5,5.2-1.8,7.8L1024,158.1z"/>
	<path class="st0" d="M1020.2,166.8l8.4-7.7l-29.1-31.6c-2.1-2.3-5.7-2.5-8-0.3v0c-2.3,2.1-2.5,5.7-0.3,8L1020.2,166.8z"/>
	<path class="st0" d="M1022.8,174.5l4-10.6l-24.2-9.1c-2.9-1.1-6.2,0.4-7.3,3.3v0c-1.1,2.9,0.4,6.2,3.3,7.3L1022.8,174.5z"/>
	<path class="st0" d="M1017.1,170.2l-4.8-7.7c-0.9-1.4-0.5-3.3,1-4.1l33.6-21c1.4-0.9,3.3-0.5,4.1,1l4.8,7.7
		c3.3,5.3,1.7,12.3-3.6,15.6l-19.5,12.2C1027.4,177.1,1020.4,175.5,1017.1,170.2z"/>
</g>
<path class="st1" d="M1121.1,357.6l-65.9-11.3l-11.9,69.5c-3.1,18.2,9.1,35.5,27.3,38.6l0,0c18.2,3.1,35.5-9.1,38.6-27.3
	L1121.1,357.6z"/>
<polygon class="st0" points="952.4,900.3 919.9,899.8 988.1,630.5 1045.1,630.5 "/>
<polygon class="st2" points="952.4,900.3 919.9,899.3 909.2,944.3 937.2,945.7 "/>
<polygon class="st3" points="949.4,909.4 917.9,908.7 915.7,918.4 946.2,918.9 "/>
<path class="st3" d="M939,939c0,0-3.8,3.8-13.6,3.4s-14.8-4.7-14.8-4.7s-15.1,13-28.6,12.2c-13.5-0.8-33.1-2.5-38.1,11.6
	s-2.6,25.9-2.6,25.9l107.5-0.1c0,0,1.4-10,0.1-23.3S939,939,939,939z"/>
<path class="st2" d="M896.1,941.5c2,0,3.5,2,2.8,3.9c-0.8,2.3-1.1,3-0.7,5.7c0.2,1.5,0.5,2.7,0.8,3.6c0.5,1.7-0.6,3.4-2.4,3.7
	l-0.5,0.1c-1.6,0.3-3.2-0.8-3.4-2.4c-0.7-4-1.8-8.8,0.8-13.2C894.1,942.1,895.1,941.5,896.1,941.5L896.1,941.5z"/>
<path class="st2" d="M884.3,945.6c2,0,3.5,2,2.8,3.9c-0.8,2.3-1.1,3-0.7,5.7c0.2,1.5,0.5,2.7,0.8,3.6c0.5,1.7-0.6,3.4-2.4,3.7
	l-0.5,0.1c-1.6,0.3-3.2-0.8-3.4-2.4c-0.7-4-1.8-8.8,0.8-13.2C882.2,946.2,883.2,945.6,884.3,945.6L884.3,945.6z"/>
<path class="st2" d="M872,946.1c2,0,3.5,2,2.8,3.9c-0.8,2.3-1.1,3-0.7,5.7c0.2,1.5,0.5,2.7,0.8,3.6c0.5,1.7-0.6,3.4-2.4,3.7
	l-0.5,0.1c-1.6,0.3-3.2-0.8-3.4-2.4c-0.7-4-1.8-8.8,0.8-13.2C870,946.7,871,946.1,872,946.1L872,946.1z"/>
<rect x="841.9" y="987.3" class="st2" width="107.2" height="11.9"/>
<path class="st4" d="M974.8,630.5c30.5-35.5,92.6-3,78.5,41.7c-0.3,0.9-0.6,1.8-0.9,2.7c-24.1,72.7-40,119.4-40,119.4l-103.2-17.3
	c0,0,14.8-43.3,34.5-92.1C948.4,673.2,962.7,644.5,974.8,630.5z"/>
<polygon class="st5" points="1017.6,779.3 915.1,760.8 920.6,746 1022.7,764.4 "/>
<polygon class="st0" points="1153.9,900.3 1186.4,899.8 1118.1,630.5 1061.1,630.5 "/>
<polygon class="st2" points="1153.9,900.3 1186.4,899.3 1197,944.3 1169,945.7 "/>
<polygon class="st3" points="1156.9,909.4 1188.4,908.7 1190.6,918.4 1160.1,918.9 "/>
<path class="st3" d="M1167.3,939c0,0,3.8,3.8,13.6,3.4c9.8-0.5,14.8-4.7,14.8-4.7s15.1,13,28.6,12.2s33.1-2.5,38.1,11.6
	c5,14.1,2.6,25.9,2.6,25.9l-107.5-0.1c0,0-1.4-10-0.1-23.3S1167.3,939,1167.3,939z"/>
<path class="st2" d="M1210.1,941.5c-2,0-3.5,2-2.8,3.9c0.8,2.3,1.1,3,0.7,5.7c-0.2,1.5-0.5,2.7-0.8,3.6c-0.5,1.7,0.6,3.4,2.4,3.7
	l0.5,0.1c1.6,0.3,3.2-0.8,3.4-2.4c0.7-4,1.8-8.8-0.8-13.2C1212.2,942.1,1211.2,941.5,1210.1,941.5L1210.1,941.5z"/>
<path class="st2" d="M1222,945.6c-2,0-3.5,2-2.8,3.9c0.8,2.3,1.1,3,0.7,5.7c-0.2,1.5-0.5,2.7-0.8,3.6c-0.5,1.7,0.6,3.4,2.4,3.7
	l0.5,0.1c1.6,0.3,3.2-0.8,3.4-2.4c0.7-4,1.8-8.8-0.8-13.2C1224,946.2,1223,945.6,1222,945.6L1222,945.6z"/>
<path class="st2" d="M1234.2,946.1c-2,0-3.5,2-2.8,3.9c0.8,2.3,1.1,3,0.7,5.7c-0.2,1.5-0.5,2.7-0.8,3.6c-0.5,1.7,0.6,3.4,2.4,3.7
	l0.5,0.1c1.6,0.3,3.2-0.8,3.4-2.4c0.7-4,1.8-8.8-0.8-13.2C1236.3,946.7,1235.3,946.1,1234.2,946.1L1234.2,946.1z"/>
<rect x="1157.1" y="987.3" transform="matrix(-1 4.488575e-11 -4.488575e-11 -1 2421.4497 1986.5011)" class="st2" width="107.2" height="11.9"/>
<path class="st4" d="M1133.3,625.8c-30.5-35.5-94.4,1.7-80.4,46.4c0.3,0.9,0.6,1.8,0.9,2.7c24.1,72.7,40,119.4,40,119.4l103.2-17.3
	c0,0-14.8-43.3-34.5-92.1C1157.9,673.2,1145.4,639.8,1133.3,625.8z"/>
<polygon class="st5" points="1088.7,779.3 1191.2,760.8 1185.7,746 1083.6,764.4 "/>
<path class="st1" d="M917.9,538.5l-37.2-55.6l58.6-39.2c15.3-10.3,36.1-6.1,46.4,9.2v0c10.3,15.3,6.1,36.1-9.2,46.4L917.9,538.5z"/>
<path class="st4" d="M1057.8,712.7h-1.4c-45,0-81.6-37-81.6-82v-0.3h164.6v0.3C1139.4,675.8,1102.9,712.7,1057.8,712.7z"/>
<path class="st3" d="M1139.2,630.5c0,0-20.2,18.5-82.2,18.5s-82-18.5-82-18.5s-3.9-43.9-7.9-64.1c-3.1-15.3-16.5-69.7-26.4-95.3
	c-7.1-18.4,4.5-28.9,22.9-35.8l80.4-30.1c13-4.9,27.7,0.6,34.2,12.9c13.1,24.6,33.8,67.6,45.6,113.9
	C1140.8,598.6,1139.2,630.5,1139.2,630.5z"/>
<path class="st1" d="M972.5,431.6l0.7,2.3c6.9,19,27.8,28.8,46.7,22.3l0,0c19.9-6.8,30-28.2,22.9-47.7l-0.9-2.7L972.5,431.6z"/>
<path class="st0" d="M1016.1,444.6L1016.1,444.6c-12.6,4.3-26.4-2.2-31-14.8l-7.9-21.7l46.4-15.9l7.6,20.8
	C1035.9,425.9,1029.1,440.1,1016.1,444.6z"/>
<path class="st6" d="M981.1,418.8c8.3-0.1,16.5-1.6,24.2-4.4c7.9-2.9,15.2-7.3,21.7-12.8l-3.4-9.3l-46.4,15.9L981.1,418.8z"/>
<path class="st0" d="M1002,405.5c-33.9,12.6-78-1.7-92-39.5l-42.2-113.7l136.3-50.6l42.2,113.7
	C1060.3,353.1,1035.9,392.9,1002,405.5z"/>
<rect x="875.8" y="301.7" transform="matrix(0.9374 -0.3483 0.3483 0.9374 -55.5592 330.9875)" class="st7" width="34.2" height="36.8"/>
<ellipse transform="matrix(0.9374 -0.3483 0.3483 0.9374 -60.5951 333.8049)" class="st0" cx="898.2" cy="335.5" rx="20.7" ry="20.7"/>
<path class="st8" d="M895.3,339.6c-1.4-3.8,0.5-8,4.3-9.4c1-0.4,2.1-0.5,3.2-0.4c-1.9-1.6-4.6-2.1-7.2-1.2c-3.8,1.4-5.7,5.6-4.3,9.4
	c1,2.7,3.5,4.5,6.2,4.7C896.6,341.9,895.8,340.9,895.3,339.6z"/>
<path class="st7" d="M1000.2,203.1l6.9-2.6c7.2-2.7,15.1,1,17.8,8.2l23.5,63.2l-19.8,7.4L1000.2,203.1z"/>
<path class="st8" d="M973.2,321.8l5.2,14c0.2,0.6,1.2,0.8,1.8,0.6l8.3-3.1c2.3-0.8,2.5-3.9,0.4-5.1l-13.9-8
	C974.1,319.7,972.8,320.7,973.2,321.8z"/>
<path class="st7" d="M879.2,247.5l0.1,0.3l-9.5,3.5c-10.1,3.7-15.2,14.8-11.5,24.9v0l4.6,12.5l12,32.2l30.9-10.5l-3.2-9.5
	c-2.1-6.3,1.2-13.1,7.5-15.2l91.6-31.3c12-4.1,18.5-17.3,14.4-29.3C1016.1,225,875.1,235.3,879.2,247.5z"/>
<path class="st7" d="M871.3,252c-6.8-14.6-7.6-23.9-0.1-35.7c4.9-7.7,16.1-13.1,20.5-14.5c2.9-0.9,6-1.3,9-0.8
	c6.4,1.2,11.8,7.4,12.1,14.1c2.1-5.2,5-10,8.5-14.3c4.5-5.5,10.4-10.2,17.4-10.7c7-0.5,14.7,4.8,15.2,12c3-2.9,5.2-6.7,8-9.8
	c4.6-5,10.9-8.1,17.6-8.7c2.5-0.2,5.1-0.1,7.5,0.6c5,1.4,9.1,5.2,12,9.7c2.9,4.5,16.7,29.3,10.4,51.3c-0.8,2.8-11.7,4.2-14.5,4.7
	L871.3,252z"/>
<rect x="861.5" y="256.6" transform="matrix(0.9374 -0.3483 0.3483 0.9374 -33.9842 348.1223)" class="st3" width="179.6" height="24"/>
<ellipse transform="matrix(0.9374 -0.3483 0.3483 0.9374 -34.4394 378.083)" class="st0" cx="1034.4" cy="284.8" rx="20.7" ry="20.7"/>
<path class="st8" d="M1042.7,284.2c-1.3-3.8-5.4-5.9-9.2-4.7c-1.1,0.3-2,0.9-2.7,1.6c0.5-2.4,2.3-4.5,4.9-5.4c3.8-1.3,8,0.8,9.2,4.7
	c0.9,2.8,0.1,5.7-1.9,7.6C1043.1,286.9,1043.1,285.5,1042.7,284.2z"/>
<g>
	<path class="st0" d="M938.1,664.6l-7.8,8.2l25.7,24.5c2.3,2.2,5.9,2.1,8-0.2v0c2.2-2.3,2.1-5.9-0.2-8L938.1,664.6z"/>
	<path class="st0" d="M946.3,656.1l-7.5,8.5l32.1,28.5c2.3,2.1,5.9,1.9,8-0.5l0,0c2.1-2.3,1.9-5.9-0.5-8L946.3,656.1z"/>
	<path class="st0" d="M956.3,651.2l-6.6,9.3l34.9,24.9c2.6,1.8,6.1,1.2,7.9-1.3h0c1.8-2.6,1.2-6.1-1.3-7.9L956.3,651.2z"/>
	<path class="st0" d="M956.4,641.6l-4.8,10.3l38.9,18c2.8,1.3,6.2,0.1,7.5-2.8l0,0c1.3-2.8,0.1-6.2-2.8-7.5L956.4,641.6z"/>
	<path class="st0" d="M951.1,635.6l0.4,11.4l25.8-0.8c3.1-0.1,5.6-2.7,5.5-5.9v0c-0.1-3.1-2.7-5.6-5.9-5.5L951.1,635.6z"/>
	<path class="st0" d="M958.1,637.4l7.4,5.3c1.3,1,1.7,2.8,0.7,4.2l-23,32.3c-1,1.3-2.8,1.7-4.2,0.7l-7.4-5.3
		c-5.1-3.6-6.3-10.7-2.7-15.8l13.3-18.7C945.9,634.9,953,633.7,958.1,637.4z"/>
</g>
<ellipse transform="matrix(0.9427 -0.3336 0.3336 0.9427 -53.5161 333.2789)" class="st7" cx="943.7" cy="322.5" rx="5" ry="8.8"/>
<ellipse transform="matrix(0.9427 -0.3336 0.3336 0.9427 -43.0223 352.0324)" class="st7" cx="1003.6" cy="301.3" rx="5" ry="8.8"/>
<path class="st9" d="M975.1,357.8c2.8,7.8,11.4,11.9,19.2,9.2l0,0c7.8-2.8,11.9-11.4,9.2-19.2"/>
</svg>
